<svg width="32" height="32" viewBox="-10 -10 320 320" fill="none" xmlns="http://www.w3.org/2000/svg">
<path d="M150 300C232.843 300 300 232.843 300 150C300 67.1573 232.843 0 150 0C67.1573 0 0 67.1573 0 150C0 232.843 67.1573 300 150 300Z" fill="#091A26"/>
<path d="M127.097 90.0134C141.814 89.9694 156.016 95.4332 166.911 105.328C170.171 108.289 170.414 113.333 167.453 116.594C164.492 119.854 159.448 120.097 156.187 117.136C148.247 109.924 137.898 105.939 127.173 105.965C121.368 106.044 115.634 107.263 110.299 109.553C104.949 111.848 100.102 115.175 96.038 119.344C93.0295 122.429 90.4963 125.934 88.5057 129.739H141.685C146.09 129.739 149.661 133.31 149.661 137.715C149.661 142.119 146.09 145.69 141.685 145.69H83.6903C83.5489 147.042 83.4692 148.402 83.453 149.764V150.956C83.453 152.738 83.558 154.495 83.7557 156.223H121.823C126.227 156.223 129.798 159.795 129.799 164.199C129.798 168.603 126.228 172.175 121.823 172.175H88.6405C96.0534 186.352 110.611 195.948 127.121 195.948L128.154 195.935C138.804 195.67 148.554 191.317 156.359 184.627C159.703 181.761 164.738 182.148 167.604 185.492C170.47 188.836 170.084 193.871 166.74 196.737C156.259 205.721 142.553 211.899 127.121 211.899C101.428 211.899 79.6738 195.231 71.2479 172.175H62.2352C57.8312 172.174 54.26 168.603 54.2596 164.199C54.26 159.795 57.8313 156.224 62.2352 156.223H67.7264C67.5818 154.517 67.5054 152.792 67.5028 151.051L67.4979 150.325V150.316C67.4973 148.77 67.5577 147.227 67.6757 145.69H62.2352C57.8311 145.69 54.2596 142.119 54.2596 137.715C54.26 133.311 57.8313 129.739 62.2352 129.739H71.1112C71.331 129.133 71.5595 128.53 71.7987 127.931C74.7353 120.579 79.0913 113.877 84.618 108.209C90.1447 102.54 96.7344 98.016 104.01 94.8943C111.285 91.7728 119.105 90.1151 127.02 90.0154C127.025 90.0153 127.029 90.0147 127.043 90.0144C127.055 90.0142 127.075 90.0135 127.097 90.0134ZM224.352 122.937L246.356 154.93H225.738L213.911 137.216L202.456 154.93H182.178L225.715 91.3689H246.09L224.352 122.937ZM213.194 107.317H193.192L181.769 91.4246H202.674L213.194 107.317Z" fill="url(#paint0_linear_2868_338)"/>
<defs>
<linearGradient id="paint0_linear_2868_338" x1="89.3107" y1="103.082" x2="178.881" y2="252.38" gradientUnits="userSpaceOnUse">
<stop stop-color="#BB32FF"/>
<stop offset="0.456727" stop-color="#0FD6F5"/>
<stop offset="1" stop-color="#A4FA4D"/>
</linearGradient>
</defs>
</svg>
 