<?xml version="1.0" encoding="UTF-8"?>
<svg version="1.1" xmlns="http://www.w3.org/2000/svg" width="48" height="48">
<path d="M0 0 C15.84 0 31.68 0 48 0 C48 15.84 48 31.68 48 48 C32.16 48 16.32 48 0 48 C0 32.16 0 16.32 0 0 Z " fill="#040D18" transform="translate(0,0)"/>
<path d="M0 0 C6.83896461 2.52436359 12.91026862 5.76608359 18 11 C19.7378179 16.03172112 19.70216021 19.96015197 18 25 C15.09453115 28.25148877 11.85509712 30.03792818 8 32 C6.82111746 32.79467183 5.65164587 33.6038459 4.5 34.4375 C2 36 2 36 0 36 C0 31.38 0 26.76 0 22 C6.625 19 6.625 19 10 19 C10 18.34 10 17.68 10 17 C9.36191406 16.79503906 8.72382813 16.59007813 8.06640625 16.37890625 C7.24011719 16.10949219 6.41382813 15.84007812 5.5625 15.5625 C4.73878906 15.29566406 3.91507813 15.02882813 3.06640625 14.75390625 C1 14 1 14 0 13 C-0.07258946 10.81360547 -0.08373783 8.62499611 -0.0625 6.4375 C-0.05347656 5.23996094 -0.04445313 4.04242188 -0.03515625 2.80859375 C-0.02355469 1.88175781 -0.01195312 0.95492188 0 0 Z " fill="#1DCFDB" transform="translate(5,6)"/>
<path d="M0 0 C0 4.62 0 9.24 0 14 C-4.95 15.485 -4.95 15.485 -10 17 C-10 17.66 -10 18.32 -10 19 C-9.36191406 19.20496094 -8.72382812 19.40992187 -8.06640625 19.62109375 C-7.24011719 19.89050781 -6.41382813 20.15992187 -5.5625 20.4375 C-4.73878906 20.70433594 -3.91507813 20.97117187 -3.06640625 21.24609375 C-1 22 -1 22 0 23 C0.07258946 25.18639453 0.08373783 27.37500389 0.0625 29.5625 C0.05347656 30.76003906 0.04445313 31.95757812 0.03515625 33.19140625 C0.02355469 34.11824219 0.01195313 35.04507813 0 36 C-4.18509484 34.51971645 -7.58311593 32.42574276 -11.25 29.9375 C-12.30703125 29.22464844 -13.3640625 28.51179688 -14.453125 27.77734375 C-17 26 -17 26 -18 25 C-18.73934694 20.20388856 -18.9141662 15.77691469 -18 11 C-15.15282904 7.6957397 -11.85222498 5.96061003 -8 4 C-6.82111746 3.20532817 -5.65164587 2.3961541 -4.5 1.5625 C-2 0 -2 0 0 0 Z " fill="#1FBEE9" transform="translate(43,6)"/>
<path d="M0 0 C3.81538304 1.38178737 6.97291881 3.13689962 10.3125 5.4375 C11.19550781 6.03433594 12.07851563 6.63117187 12.98828125 7.24609375 C13.65214844 7.82488281 14.31601562 8.40367188 15 9 C15 12 15 12 12.5 14.6875 C11.675 15.450625 10.85 16.21375 10 17 C8.51965236 16.52449439 7.04074979 16.04448784 5.5625 15.5625 C4.73878906 15.29566406 3.91507813 15.02882813 3.06640625 14.75390625 C1 14 1 14 0 13 C-0.07258946 10.81360547 -0.08373783 8.62499611 -0.0625 6.4375 C-0.05347656 5.23996094 -0.04445313 4.04242188 -0.03515625 2.80859375 C-0.02355469 1.88175781 -0.01195312 0.95492188 0 0 Z " fill="#6282F6" transform="translate(5,6)"/>
<path d="M0 0 C0 4.62 0 9.24 0 14 C-5.15915091 15.83630795 -5.15915091 15.83630795 -8 16 C-10.8125 13.75 -10.8125 13.75 -13 11 C-13.99 10.34 -14.98 9.68 -16 9 C-13.71180854 7.49445366 -11.41978831 5.99542957 -9.125 4.5 C-8.47402344 4.07074219 -7.82304688 3.64148438 -7.15234375 3.19921875 C-2.2265625 0 -2.2265625 0 0 0 Z " fill="#7075F6" transform="translate(43,6)"/>
<path d="M0 0 C0.66 0.33 1.32 0.66 2 1 C2 5.62 2 10.24 2 15 C-2 15 -2 15 -3.484375 13.6875 C-4.65625 12.125 -5.828125 10.5625 -7 9 C-5.03681826 5.46627288 -2.95929119 2.75520215 0 0 Z " fill="#29B7ED" transform="translate(21,16)"/>
<path d="M0 0 C0.99 0.33 1.98 0.66 3 1 C3 5.29 3 9.58 3 14 C-1.77737198 12.08905121 -3.62722811 10.66186662 -7 7 C-4.69 4.69 -2.38 2.38 0 0 Z " fill="#4CE2AB" transform="translate(40,28)"/>
<path d="M0 0 C6.125 -0.4375 6.125 -0.4375 9 1 C7.4169423 5.2742558 4.49431596 7.26531794 1 10 C-0.65 9.01 -2.3 8.02 -4 7 C-2.79618552 4.50638429 -1.54571278 2.31856917 0 0 Z " fill="#18CFEC" transform="translate(31,26)"/>
<path d="M0 0 C4.44607497 1.77842999 5.9797308 2.64414533 9 6 C6.69 8.64 4.38 11.28 2 14 C1.34 13.67 0.68 13.34 0 13 C0 8.71 0 4.42 0 0 Z " fill="#954EF5" transform="translate(5,6)"/>
<path d="M0 0 C3 3 6 6 9 9 C7.87926138 9.83905565 6.75325453 10.67107831 5.625 11.5 C4.99851562 11.9640625 4.37203125 12.428125 3.7265625 12.90625 C2 14 2 14 0 14 C0 9.38 0 4.76 0 0 Z " fill="#6FE882" transform="translate(5,28)"/>
<path d="M0 0 C0 4.62 0 9.24 0 14 C-0.66 12.68 -1.32 11.36 -2 10 C-2.99 9.67 -3.98 9.34 -5 9 C-5 8.34 -5 7.68 -5 7 C-5.66 7 -6.32 7 -7 7 C-6.61402985 4.20171644 -6.19863427 3.1794116 -4.0625 1.25 C-2 0 -2 0 0 0 Z " fill="#7351D3" transform="translate(43,6)"/>
<path d="M0 0 C0.33 0 0.66 0 1 0 C1 4.29 1 8.58 1 13 C-1.475 12.01 -1.475 12.01 -4 11 C-4 7 -4 7 -2.5625 5.5 C-2.046875 5.005 -1.53125 4.51 -1 4 C-0.28552357 1.89667109 -0.28552357 1.89667109 0 0 Z " fill="#65CC70" transform="translate(42,29)"/>
<path d="M0 0 C4.82034262 0.41317222 6.90992611 2.38019915 10 6 C10 6.66 10 7.32 10 8 C5.17965738 7.58682778 3.09007389 5.61980085 0 2 C0 1.34 0 0.68 0 0 Z " fill="#47E2B3" transform="translate(6,28)"/>
<path d="M0 0 C0.99 0.495 0.99 0.495 2 1 C2 4.3 2 7.6 2 11 C5.05270463 7.36893239 5.05270463 7.36893239 6 4 C6.99 4.33 7.98 4.66 9 5 C6.89851796 8.98175544 4.63094642 11.35039045 1 14 C0 13 0 13 -0.09765625 10.05859375 C-0.08605469 8.86363281 -0.07445312 7.66867187 -0.0625 6.4375 C-0.05347656 5.23996094 -0.04445313 4.04242188 -0.03515625 2.80859375 C-0.02355469 1.88175781 -0.01195312 0.95492188 0 0 Z " fill="#6B59D4" transform="translate(5,6)"/>
<path d="M0 0 C1.32 0.33 2.64 0.66 4 1 C2.4169423 5.2742558 -0.50568404 7.26531794 -4 10 C-4 6 -4 6 -2.5625 4.4375 C-2.046875 3.963125 -1.53125 3.48875 -1 3 C-0.67 2.01 -0.34 1.02 0 0 Z " fill="#2CD8CD" transform="translate(36,26)"/>
<path d="M0 0 C3 3 6 6 9 9 C6 9 6 9 3.8125 7 C3.214375 6.34 2.61625 5.68 2 5 C2 7.97 2 10.94 2 14 C1.34 14 0.68 14 0 14 C0 9.38 0 4.76 0 0 Z " fill="#4EBC7B" transform="translate(5,28)"/>
<path d="M0 0 C0.2475 0.556875 0.495 1.11375 0.75 1.6875 C2.21606015 4.39971127 4.02989471 6.63587365 6 9 C2 9 2 9 -0.0625 7.125 C-0.701875 6.42375 -1.34125 5.7225 -2 5 C-2.99 4.34 -3.98 3.68 -5 3 C-3.35 2.01 -1.7 1.02 0 0 Z " fill="#4C91ED" transform="translate(32,12)"/>
<path d="M0 0 C1.32 0.33 2.64 0.66 4 1 C2.02 3.31 0.04 5.62 -2 8 C-2.99 7.67 -3.98 7.34 -5 7 C-3.35 4.69 -1.7 2.38 0 0 Z " fill="#40A5F6" transform="translate(17,15)"/>
<path d="M0 0 C3.78611227 0.54087318 5.55400767 2.11722332 8 5 C8 5.66 8 6.32 8 7 C4.21388773 6.45912682 2.44599233 4.88277668 0 2 C0 1.34 0 0.68 0 0 Z " fill="#3BABF6" transform="translate(27,16)"/>
<path d="M0 0 C0 3 0 3 -2.5 5.6875 C-3.325 6.450625 -4.15 7.21375 -5 8 C-5 6.02 -5 4.04 -5 2 C-3.35 1.34 -1.7 0.68 0 0 Z " fill="#2EB6F4" transform="translate(31,24)"/>
<path d="M0 0 C1.7074998 1.28062485 3.37373596 2.61767557 5 4 C5 4.66 5 5.32 5 6 C5.66 6 6.32 6 7 6 C7 6.66 7 7.32 7 8 C2.58110387 6.64978174 0.65654657 4.73884332 -2 1 C-1.34 0.67 -0.68 0.34 0 0 Z " fill="#5F87F7" transform="translate(33,13)"/>
<path d="M0 0 C0.99 0.33 1.98 0.66 3 1 C1.53084902 3.93830197 -0.57938028 5.80991549 -3 8 C-3.99 8 -4.98 8 -6 8 C-4.02 5.36 -2.04 2.72 0 0 Z " fill="#4E8FEE" transform="translate(16,13)"/>
<path d="M0 0 C0.66 0 1.32 0 2 0 C2 1.98 2 3.96 2 6 C0.68 5.67 -0.64 5.34 -2 5 C-1.125 1.125 -1.125 1.125 0 0 Z " fill="#1ACCF4" transform="translate(20,20)"/>
<path d="M0 0 C0.33 1.32 0.66 2.64 1 4 C-0.65 5.32 -2.3 6.64 -4 8 C-3.50168276 4.31245243 -2.89932357 2.39509338 0 0 Z " fill="#8267FB" transform="translate(10,10)"/>
<path d="M0 0 C0.66 0 1.32 0 2 0 C2 2.31 2 4.62 2 7 C0.68 6.34 -0.64 5.68 -2 5 C-1.34 3.35 -0.68 1.7 0 0 Z " fill="#994FFA" transform="translate(40,7)"/>
<path d="M0 0 C3.36591866 1.44253657 5.51047079 3.33264727 8 6 C7.67 6.66 7.34 7.32 7 8 C5.8274869 7.04882866 4.66212985 6.08882991 3.5 5.125 C2.8503125 4.59132813 2.200625 4.05765625 1.53125 3.5078125 C1.0259375 3.01023437 0.520625 2.51265625 0 2 C0 1.34 0 0.68 0 0 Z " fill="#39DDC1" transform="translate(8,28)"/>
</svg>
