<svg width="34" height="34" viewBox="0 0 34 34" fill="none" xmlns="http://www.w3.org/2000/svg">
<g clip-path="url(#clip0_26_5051)">
<path d="M18.3929 8.24646C19.4897 7.71912 20.25 6.58826 20.25 5.28162C20.25 3.47107 18.7933 2.00037 17 2.00037C15.2067 2.00037 13.75 3.47107 13.75 5.28162C13.75 6.58826 14.5103 7.71912 15.6071 8.24646V14.0355C15.4446 14.1117 15.2879 14.2054 15.1429 14.3109L10.4942 11.6273C10.587 10.4086 9.99509 9.18982 8.875 8.53357C7.31964 7.62537 5.33482 8.16443 4.43526 9.73474C3.53571 11.3051 4.06964 13.309 5.625 14.2172C5.70044 14.264 5.77589 14.3051 5.85714 14.3402V19.6605C5.78169 19.6957 5.70044 19.7367 5.625 19.7836C4.06964 20.6918 3.53571 22.6957 4.43526 24.266C5.33482 25.8363 7.31964 26.3754 8.875 25.4672C9.99509 24.8168 10.5812 23.5922 10.4884 22.3734L13.4192 20.6801C12.7518 20.0238 12.2643 19.1801 12.0379 18.2367L9.10714 19.9359C8.95625 19.8304 8.80535 19.7426 8.64285 19.6605V14.3402C8.80535 14.264 8.96205 14.1703 9.10714 14.0648L13.7558 16.7484C13.75 16.8304 13.7442 16.9125 13.7442 17.0004C13.7442 18.307 14.5045 19.4379 15.6013 19.9652V25.7543C14.5045 26.2816 13.7442 27.4125 13.7442 28.7191C13.7442 30.5297 15.2009 32.0004 16.9942 32.0004C18.7875 32.0004 20.2442 30.5297 20.2442 28.7191C20.2442 27.4125 19.4839 26.2816 18.387 25.7543V19.9652C18.5495 19.889 18.7062 19.7953 18.8513 19.6898L23.5 22.3734C23.4071 23.5922 23.9991 24.8109 25.1134 25.4672C26.6687 26.3754 28.6536 25.8363 29.5531 24.266C30.4527 22.6957 29.9187 20.6918 28.3634 19.7836C28.2879 19.7367 28.2067 19.6957 28.1312 19.6605V14.3402C28.2125 14.3051 28.2879 14.264 28.3634 14.2172C29.9187 13.309 30.4527 11.3051 29.5531 9.73474C28.6536 8.16443 26.6804 7.62537 25.125 8.53357C24.0049 9.18396 23.4187 10.4086 23.5116 11.6273L20.575 13.3207C21.2424 13.9769 21.7299 14.8207 21.9562 15.764L24.8929 14.0648C25.0437 14.1703 25.1946 14.2582 25.3571 14.3402V19.6605C25.1946 19.7367 25.0379 19.8304 24.8929 19.9301L20.2442 17.2465C20.25 17.1644 20.2558 17.0824 20.2558 16.9945C20.2558 15.6879 19.4955 14.557 18.3987 14.0297V8.2406L18.3929 8.24646Z" fill="url(#paint0_linear_26_5051)"/>
</g>
<defs>
<linearGradient id="paint0_linear_26_5051" x1="0.500168" y1="-1.99963" x2="9.16465" y2="42.0638" gradientUnits="userSpaceOnUse">
<stop stop-color="#BB32FF"/>
<stop offset="0.585" stop-color="#0FD6F5"/>
<stop offset="1" stop-color="#7CE314"/>
</linearGradient>
<clipPath id="clip0_26_5051">
<rect width="26" height="30" fill="white" transform="translate(4 2.00037)"/>
</clipPath>
</defs>
</svg>
