<svg width="18" height="21" viewBox="0 0 18 21" fill="none" xmlns="http://www.w3.org/2000/svg">
<path d="M13.0466 0.229C13.5048 0.550961 13.6743 1.13498 13.4663 1.64413L10.4474 8.9856H16.0193C16.5392 8.9856 17.0013 9.30008 17.1784 9.77553C17.3555 10.251 17.2054 10.7826 16.8087 11.1046L5.71871 20.0895C5.28358 20.4414 4.66362 20.4602 4.20539 20.1382C3.74715 19.8162 3.57772 19.2322 3.78566 18.7231L6.80461 11.3816H1.23264C0.7128 11.3816 0.250715 11.0671 0.0735831 10.5917C-0.103549 10.1162 0.0466282 9.5846 0.443251 9.26264L11.5333 0.277668C11.9684 -0.0742431 12.5884 -0.0929618 13.0466 0.229Z" fill="url(#paint0_linear_26_5108)"/>
<defs>
<linearGradient id="paint0_linear_26_5108" x1="6.12939" y1="0.337891" x2="19.6294" y2="20.3379" gradientUnits="userSpaceOnUse">
<stop stop-color="#BB32FF"/>
<stop offset="0.5" stop-color="#0FD6F5"/>
<stop offset="1" stop-color="#7CE314"/>
</linearGradient>
</defs>
</svg>
