<svg width="22" height="30" viewBox="0 0 22 30" fill="none" xmlns="http://www.w3.org/2000/svg">
<path d="M0 3.75C0 1.68164 1.64427 0 3.66667 0H12.2318C13.2057 0 14.1396 0.392578 14.8271 1.0957L20.9286 7.3418C21.6161 8.04492 22 9 22 9.99609V26.25C22 28.3184 20.3557 30 18.3333 30H3.66667C1.64427 30 0 28.3184 0 26.25V3.75ZM11.9167 3.42773V8.90625C11.9167 9.68555 12.5297 10.3125 13.2917 10.3125H18.6484L11.9167 3.42773ZM6.875 15C6.11302 15 5.5 15.627 5.5 16.4062C5.5 17.1855 6.11302 17.8125 6.875 17.8125H15.125C15.887 17.8125 16.5 17.1855 16.5 16.4062C16.5 15.627 15.887 15 15.125 15H6.875ZM6.875 20.625C6.11302 20.625 5.5 21.252 5.5 22.0312C5.5 22.8105 6.11302 23.4375 6.875 23.4375H15.125C15.887 23.4375 16.5 22.8105 16.5 22.0312C16.5 21.252 15.887 20.625 15.125 20.625H6.875Z" fill="url(#paint0_linear_26_5157)"/>
<defs>
<linearGradient id="paint0_linear_26_5157" x1="7.67257e-07" y1="-4" x2="33.4293" y2="29.0151" gradientUnits="userSpaceOnUse">
<stop stop-color="#BB32FF"/>
<stop offset="0.634459" stop-color="#0FD6F5"/>
<stop offset="1" stop-color="#7CE314"/>
</linearGradient>
</defs>
</svg>
