<svg width="30" height="30" viewBox="0 0 30 30" fill="none" xmlns="http://www.w3.org/2000/svg">
<path d="M29.4492 8.82418L23.8242 14.4492C23.2852 14.9882 22.4824 15.1465 21.7793 14.8535C21.0762 14.5605 20.625 13.8808 20.625 13.125V9.37497H1.875C0.837891 9.37497 -1.11759e-08 8.53708 -1.11759e-08 7.49997C-1.11759e-08 6.46286 0.837891 5.62497 1.875 5.62497H20.625V1.87497C20.625 1.11911 21.082 0.43356 21.7852 0.140591C22.4883 -0.152378 23.291 0.0116847 23.8301 0.544888L29.4551 6.16989C30.1875 6.90231 30.1875 8.09176 29.4551 8.82418H29.4492ZM6.16992 29.4492L0.544922 23.8242C-0.1875 23.0918 -0.1875 21.9023 0.544922 21.1699L6.16992 15.5449C6.70898 15.0058 7.51172 14.8476 8.21484 15.1406C8.91797 15.4336 9.375 16.1191 9.375 16.875V20.625H28.125C29.1621 20.625 30 21.4629 30 22.5C30 23.5371 29.1621 24.375 28.125 24.375H9.375V28.125C9.375 28.8808 8.91797 29.5664 8.21484 29.8593C7.51172 30.1523 6.70898 29.9882 6.16992 29.455V29.4492Z" fill="url(#paint0_linear_26_5081)"/>
<defs>
<linearGradient id="paint0_linear_26_5081" x1="2" y1="1.49963" x2="26.5" y2="34.9996" gradientUnits="userSpaceOnUse">
<stop stop-color="#BB32FF"/>
<stop offset="0.585" stop-color="#0FD6F5"/>
<stop offset="1" stop-color="#7CE314"/>
</linearGradient>
</defs>
</svg>
