<svg width="22" height="22" viewBox="0 0 22 22" fill="none" xmlns="http://www.w3.org/2000/svg">
<path d="M14.7578 11.7927H6.71767C6.83981 14.5092 7.44209 17.011 8.29706 18.8431C8.7772 19.8749 9.29524 20.6035 9.77537 21.05C10.2471 21.4922 10.5714 21.5638 10.7399 21.5638C10.9083 21.5638 11.2326 21.4922 11.7043 21.05C12.1845 20.6035 12.7025 19.8707 13.1826 18.8431C14.0376 17.011 14.6399 14.5092 14.762 11.7927H14.7578ZM6.71346 9.77104H14.7536C14.6357 7.05449 14.0334 4.55273 13.1784 2.72064C12.6983 1.69298 12.1803 0.960147 11.7001 0.513706C11.2284 0.0714769 10.9041 -0.00012207 10.7356 -0.00012207C10.5672 -0.00012207 10.2429 0.0714769 9.77116 0.513706C9.29102 0.960147 8.77298 1.69298 8.29285 2.72064C7.43787 4.55273 6.8356 7.05449 6.71346 9.77104ZM4.69184 9.77104C4.83925 6.16582 5.77004 2.81751 7.13042 0.618999C3.25144 1.99201 0.3959 5.52564 0 9.77104H4.69184ZM0 11.7927C0.3959 16.0381 3.25144 19.5717 7.13042 20.9447C5.77004 18.7462 4.83925 15.3979 4.69184 11.7927H0ZM16.7794 11.7927C16.632 15.3979 15.7012 18.7462 14.3409 20.9447C18.2198 19.5675 21.0754 16.0381 21.4713 11.7927H16.7794ZM21.4713 9.77104C21.0754 5.52564 18.2198 1.99201 14.3409 0.618999C15.7012 2.81751 16.632 6.16582 16.7794 9.77104H21.4713Z" fill="url(#paint0_linear_26_5123)"/>
<defs>
<linearGradient id="paint0_linear_26_5123" x1="7.62845" y1="0.357622" x2="20.9389" y2="23.5375" gradientUnits="userSpaceOnUse">
<stop stop-color="#BB32FF"/>
<stop offset="0.5" stop-color="#0FD6F5"/>
<stop offset="1" stop-color="#7CE314"/>
</linearGradient>
</defs>
</svg>
