<svg width="30" height="30" viewBox="0 0 30 30" fill="none" xmlns="http://www.w3.org/2000/svg">
<path d="M15 30C11.0218 30 7.20644 28.4196 4.3934 25.6066C1.58035 22.7936 0 18.9782 0 15C0 11.0218 1.58035 7.20644 4.3934 4.3934C7.20644 1.58035 11.0218 0 15 0C18.9782 0 22.7936 1.58035 25.6066 4.3934C28.4196 7.20644 30 11.0218 30 15C30 18.9782 28.4196 22.7936 25.6066 25.6066C22.7936 28.4196 18.9782 30 15 30ZM21.9141 8.53711C21.2871 8.08008 20.4082 8.2207 19.9512 8.84766L12.9551 18.4688L9.90234 15.416C9.35156 14.8652 8.46094 14.8652 7.91602 15.416C7.37109 15.9668 7.36523 16.8574 7.91602 17.4023L12.1348 21.6211C12.4277 21.9141 12.8262 22.0605 13.2363 22.0312C13.6465 22.002 14.0215 21.791 14.2617 21.457L22.2246 10.5C22.6816 9.87305 22.541 8.99414 21.9141 8.53711Z" fill="url(#paint0_linear_26_5067)"/>
<defs>
<linearGradient id="paint0_linear_26_5067" x1="0" y1="0" x2="31" y2="35" gradientUnits="userSpaceOnUse">
<stop stop-color="#BB32FF"/>
<stop offset="0.585" stop-color="#0FD6F5"/>
<stop offset="1" stop-color="#7CE314"/>
</linearGradient>
</defs>
</svg>
