<svg width="32" height="28" viewBox="0 0 32 28" fill="none" xmlns="http://www.w3.org/2000/svg">
<path d="M12.9992 16.1875C18.3859 16.1875 22.75 20.5516 22.75 25.9383C22.75 26.8352 22.0227 27.5625 21.1258 27.5625H1.62422C0.727344 27.5625 0 26.8352 0 25.9383C0 20.5516 4.36406 16.1875 9.75078 16.1875H12.9992ZM29.3891 5.35391C29.8156 4.76875 30.6359 4.6375 31.2211 5.06406C31.8063 5.49062 31.9375 6.31094 31.5109 6.89609L25.9109 14.5961C25.6812 14.9078 25.3258 15.1102 24.943 15.132C24.5602 15.1539 24.1773 15.0117 23.9094 14.7328L21.3719 12.1078C20.8688 11.5883 20.8797 10.757 21.4047 10.2539C21.9242 9.75078 22.7555 9.76719 23.2586 10.2867L24.7078 11.7852L29.3891 5.34844V5.35391ZM11.375 13.125C10.5132 13.125 9.65984 12.9553 8.86364 12.6255C8.06744 12.2957 7.344 11.8123 6.73461 11.2029C6.12523 10.5935 5.64184 9.87006 5.31204 9.07386C4.98224 8.27766 4.8125 7.4243 4.8125 6.5625C4.8125 5.7007 4.98224 4.84734 5.31204 4.05114C5.64184 3.25494 6.12523 2.5315 6.73461 1.92211C7.344 1.31273 8.06744 0.829337 8.86364 0.499541C9.65984 0.169744 10.5132 -1.28418e-08 11.375 0C12.2368 -1.28418e-08 13.0902 0.169744 13.8864 0.499541C14.6826 0.829337 15.406 1.31273 16.0154 1.92211C16.6248 2.5315 17.1082 3.25494 17.438 4.05114C17.7678 4.84734 17.9375 5.7007 17.9375 6.5625C17.9375 7.4243 17.7678 8.27766 17.438 9.07386C17.1082 9.87006 16.6248 10.5935 16.0154 11.2029C15.406 11.8123 14.6826 12.2957 13.8864 12.6255C13.0902 12.9553 12.2368 13.125 11.375 13.125Z" fill="url(#paint0_linear_26_5074)"/>
<defs>
<linearGradient id="paint0_linear_26_5074" x1="-0.463405" y1="0.380152" x2="27.6617" y2="33.5358" gradientUnits="userSpaceOnUse">
<stop stop-color="#BB32FF"/>
<stop offset="0.585" stop-color="#0FD6F5"/>
<stop offset="1" stop-color="#7CE314"/>
</linearGradient>
</defs>
</svg>
