<svg width="28" height="28" viewBox="0 0 28 28" fill="none" xmlns="http://www.w3.org/2000/svg">
<path d="M2.61837 0.244517C2.90072 -0.0378348 3.33993 -0.0796647 3.67457 0.139943L9.89155 4.28111C10.3569 4.5896 10.634 5.11248 10.634 5.67195V8.26541L15.3817 13.0131C17.1229 12.2288 19.2458 12.5478 20.6732 13.9804L27.2667 20.5739C28.2444 21.5517 28.2444 23.1412 27.2667 24.1242L24.1242 27.2667C23.1464 28.2444 21.5569 28.2444 20.5739 27.2667L13.9804 20.6732C12.5478 19.2405 12.2288 17.1229 13.0131 15.3817L8.26541 10.634H5.67195C5.11248 10.634 4.5896 10.3569 4.28111 9.89155L0.139943 3.67457C-0.0796647 3.34516 -0.0378348 2.90072 0.244517 2.61837L2.61837 0.244517ZM10.2 16.1138C9.87064 18.0432 10.3203 20.0824 11.57 21.719L6.6079 26.6863C5.13862 28.1556 2.75431 28.1556 1.28504 26.6863C-0.18424 25.217 -0.18424 22.8327 1.28504 21.3634L8.36476 14.2785L10.2053 16.1138H10.2ZM19 0.594843C20.051 0.594843 21.0601 0.788307 21.9856 1.14386C22.5085 1.34255 22.6026 2.0066 22.2105 2.40399L19.2458 5.36869C19.0889 5.52555 19 5.73993 19 5.95954V8.12424C19 8.58436 19.3765 8.96083 19.8366 8.96083H22.0013C22.2209 8.96083 22.4353 8.87195 22.5922 8.71508L25.5569 5.75039C25.9543 5.35823 26.6183 5.45235 26.817 5.97522C27.1726 6.90071 27.366 7.90986 27.366 8.96083C27.366 11.2197 26.4667 13.2641 25.0131 14.77L22.4458 12.2027C20.7151 10.4772 18.3412 9.81312 16.1138 10.1948L13.1438 7.22489V5.67195L13.1334 5.41052C13.0915 4.76215 12.9033 4.13993 12.5844 3.58569C14.1216 1.75562 16.4223 0.594843 19 0.589615V0.594843Z" fill="url(#paint0_linear_26_5170)"/>
<defs>
<linearGradient id="paint0_linear_26_5170" x1="-0.197664" y1="-0.297167" x2="33.7181" y2="34.2551" gradientUnits="userSpaceOnUse">
<stop stop-color="#BB32FF"/>
<stop offset="0.639485" stop-color="#0FD6F5"/>
<stop offset="1" stop-color="#7CE314"/>
</linearGradient>
</defs>
</svg>
