<svg width="22" height="24" viewBox="0 0 22 24" fill="none" xmlns="http://www.w3.org/2000/svg">
<path fill-rule="evenodd" clip-rule="evenodd" d="M3.55873 7.11753C3.55873 5.22985 4.3086 3.41947 5.64338 2.08468C6.97816 0.749881 8.78851 0 10.6762 0C12.5638 0 14.3742 0.749881 15.709 2.08468C17.0438 3.41947 17.7936 5.22985 17.7936 7.11753H18.9799C19.6091 7.11753 20.2125 7.3675 20.6575 7.81243C21.1024 8.25736 21.3524 8.86082 21.3524 9.49005V21.3526C21.3524 21.9818 21.1024 22.5853 20.6575 23.0302C20.2125 23.4752 19.6091 23.7251 18.9799 23.7251H2.37248C1.74326 23.7251 1.13981 23.4752 0.694884 23.0302C0.249957 22.5853 0 21.9818 0 21.3526V9.49005C0 8.86082 0.249957 8.25736 0.694884 7.81243C1.13981 7.3675 1.74326 7.11753 2.37248 7.11753H3.55873ZM10.6762 2.37251C11.9346 2.37251 13.1415 2.87243 14.0314 3.7623C14.9212 4.65216 15.4211 5.85908 15.4211 7.11753H5.93121C5.93121 5.85908 6.43112 4.65216 7.32098 3.7623C8.21083 2.87243 9.41773 2.37251 10.6762 2.37251ZM13.0487 14.2351C13.0486 14.6515 12.939 15.0606 12.7308 15.4213C12.5226 15.7819 12.2231 16.0814 11.8624 16.2897V17.7938C11.8624 18.1084 11.7374 18.4102 11.515 18.6326C11.2925 18.8551 10.9908 18.9801 10.6762 18.9801C10.3616 18.9801 10.0598 18.8551 9.83738 18.6326C9.61491 18.4102 9.48993 18.1084 9.48993 17.7938V16.2897C9.03767 16.0285 8.68421 15.6254 8.48437 15.1429C8.28453 14.6604 8.24947 14.1255 8.38464 13.621C8.51981 13.1166 8.81765 12.6708 9.23197 12.3529C9.64629 12.0349 10.1539 11.8626 10.6762 11.8626C11.3054 11.8626 11.9088 12.1125 12.3538 12.5575C12.7987 13.0024 13.0487 13.6058 13.0487 14.2351Z" fill="url(#paint0_linear_26_5116)"/>
<defs>
<linearGradient id="paint0_linear_26_5116" x1="7.5862" y1="0.393598" x2="22.9355" y2="24.5545" gradientUnits="userSpaceOnUse">
<stop stop-color="#BB32FF"/>
<stop offset="0.5" stop-color="#0FD6F5"/>
<stop offset="1" stop-color="#7CE314"/>
</linearGradient>
</defs>
</svg>
