<svg width="30" height="28" viewBox="0 0 30 28" fill="none" xmlns="http://www.w3.org/2000/svg">
<path d="M14.0052 2.73824L7.93229 9.40882C7.69271 9.67132 7.70312 10.0779 7.95833 10.3301C9.54688 11.9 12.125 11.9 13.7135 10.3301L15.3698 8.69338C15.5885 8.47721 15.8646 8.35882 16.1458 8.33824C16.5 8.30735 16.8646 8.42574 17.1354 8.69338L26.3333 17.7059L30 14.8235V0L24.1667 3.29412L22.9271 2.47574C22.1042 1.93529 21.1406 1.64706 20.151 1.64706H16.4844C16.4271 1.64706 16.3646 1.64706 16.3073 1.65221C15.4271 1.69853 14.599 2.08971 14.0052 2.73824ZM6.07292 7.75662L11.6354 1.64706H9.57292C8.24479 1.64706 6.97396 2.16691 6.03646 3.09338L0 9.88235V28L7.5 21L8.14583 21.5301C9.34375 22.5184 10.8542 23.0588 12.4115 23.0588H13.2292L12.8646 22.6985C12.375 22.2147 12.375 21.4324 12.8646 20.9537C13.3542 20.475 14.1458 20.4699 14.6302 20.9537L16.7656 23.064H17.2344C18.2292 23.064 19.2031 22.8426 20.0885 22.4309L18.6979 21.0515C18.2083 20.5676 18.2083 19.7853 18.6979 19.3066C19.1875 18.8279 19.9792 18.8228 20.4635 19.3066L22.1302 20.9537L23.0417 20.0529C23.5052 19.5949 23.6406 18.9309 23.4375 18.3493L16.2552 11.3081L15.4792 12.075C12.9115 14.6125 8.75521 14.6125 6.1875 12.075C4.98958 10.8912 4.94271 8.99191 6.07292 7.75147V7.75662Z" fill="url(#paint0_linear_26_5211)"/>
<defs>
<linearGradient id="paint0_linear_26_5211" x1="5.5" y1="-2.5" x2="34.1341" y2="27.9597" gradientUnits="userSpaceOnUse">
<stop stop-color="#BB32FF"/>
<stop offset="0.5" stop-color="#0FD6F5"/>
<stop offset="1" stop-color="#7CE314"/>
</linearGradient>
</defs>
</svg>
