<svg width="31" height="22" viewBox="0 0 31 22" fill="none" xmlns="http://www.w3.org/2000/svg">
<path d="M3.1 3.14286C3.1 1.40938 4.49016 0 6.2 0H24.8C26.5098 0 27.9 1.40938 27.9 3.14286V14.9286H24.8V3.14286H6.2V14.9286H3.1V3.14286ZM0 18.2286C0 17.708 0.416562 17.2857 0.93 17.2857H30.07C30.5834 17.2857 31 17.708 31 18.2286C31 20.3107 29.3337 22 27.28 22H3.72C1.66625 22 0 20.3107 0 18.2286ZM13.6109 8.69196L12.1094 10.2143L13.6109 11.7366C14.0663 12.1982 14.0663 12.9446 13.6109 13.4013C13.1556 13.858 12.4194 13.8629 11.9689 13.4013L9.64391 11.0442C9.18859 10.5826 9.18859 9.83616 9.64391 9.37946L11.9689 7.02232C12.4242 6.56071 13.1605 6.56071 13.6109 7.02232C14.0614 7.48393 14.0663 8.23036 13.6109 8.68705V8.69196ZM19.0359 7.02232L21.3609 9.37946C21.8162 9.84107 21.8162 10.5875 21.3609 11.0442L19.0359 13.4013C18.5806 13.8629 17.8444 13.8629 17.3939 13.4013C16.9434 12.9397 16.9386 12.1933 17.3939 11.7366L18.8955 10.2143L17.3939 8.69196C16.9386 8.23036 16.9386 7.48393 17.3939 7.02723C17.8492 6.57054 18.5855 6.56563 19.0359 7.02723V7.02232Z" fill="url(#paint0_linear_26_5088)"/>
<defs>
<linearGradient id="paint0_linear_26_5088" x1="-1.5" y1="-2.5" x2="34.5" y2="31.5" gradientUnits="userSpaceOnUse">
<stop stop-color="#BB32FF"/>
<stop offset="0.585" stop-color="#0FD6F5"/>
<stop offset="1" stop-color="#7CE314"/>
</linearGradient>
</defs>
</svg>
