<svg id="e8wVus6A0Nj1" xmlns="http://www.w3.org/2000/svg" xmlns:xlink="http://www.w3.org/1999/xlink" viewBox="0 0 1440 600" shape-rendering="geometricPrecision" text-rendering="geometricPrecision" project-id="55997866f536440e98287f16288e783f" export-id="02a07eec419442d9a962711f524e1aea" cached="false"><defs><filter id="e8wVus6A0Nj4-filter" x="-150%" y="-150%" width="400%" height="400%"><feGaussianBlur id="e8wVus6A0Nj4-filter-blur-0" stdDeviation="104.471001,104.471001" result="result"/></filter><radialGradient id="e8wVus6A0Nj11-stroke" cx="0" cy="0" r="1" spreadMethod="pad" gradientUnits="userSpaceOnUse" gradientTransform="matrix(0 491.486 -1081.27 0 945.348 357.102)"><stop id="e8wVus6A0Nj11-stroke-0" offset="0%" stop-color="#fff"/><stop id="e8wVus6A0Nj11-stroke-1" offset="100%" stop-color="rgba(255,255,255,0)"/></radialGradient><radialGradient id="e8wVus6A0Nj13-stroke" cx="0" cy="0" r="1" spreadMethod="pad" gradientUnits="userSpaceOnUse" gradientTransform="matrix(0 506.231 -1096.01 0 945.347 357.102)"><stop id="e8wVus6A0Nj13-stroke-0" offset="0%" stop-color="#fff"/><stop id="e8wVus6A0Nj13-stroke-1" offset="100%" stop-color="rgba(255,255,255,0)"/></radialGradient></defs><g clip-path="url(#e8wVus6A0Nj24)"><g><g filter="url(#e8wVus6A0Nj4-filter)"><ellipse rx="481.302" ry="245.959" transform="translate(1195.25 -72.3744)" fill="#861fff"/><ellipse rx="241.612" ry="105.373" transform="translate(574.757 -72.3742)" fill="#212bff"/><ellipse rx="307.017" ry="174.254" transform="translate(1200.61 211.314)" fill="#bb32ff"/><ellipse rx="313.622" ry="192.625" transform="translate(1129.99 281.096)" fill="#66dbef"/></g><g opacity="0.7"><g style="mix-blend-mode:soft-light" opacity="0.7"><path d="M-86.7737,-134.385h-49.1483v49.1489m49.1483-49.1489v49.1489m0-49.1489h49.1486m-49.1486,49.1489h-49.1483m49.1483,0v49.1486m0-49.1486h49.1486m-98.2969,0v49.1486m49.1483,0h-49.1483m49.1483,0v49.1486m0-49.1486h49.1486m-98.2969,0v49.1486m49.1483,0h-49.1483m49.1483,0v49.1487m0-49.1487h49.1486m-98.2969,0v49.1487m49.1483,0h-49.1483m49.1483,0v49.1482m0-49.1482h49.1486m-98.2969,0v49.1482m49.1483,0h-49.1483m49.1483,0v49.149m0-49.149h49.1486m-98.2969,0v49.149m49.1483,0h-49.1483m49.1483,0v49.149m0-49.149h49.1486m-98.2969,0v49.149m49.1483,0h-49.1483m49.1483,0v49.148m0-49.148h49.1486m-98.2969,0v49.148m49.1483,0h-49.1483m49.1483,0v49.149m0-49.149h49.1486m-98.2969,0v49.149m49.1483,0h-49.1483m49.1483,0v49.149m0-49.149h49.1486m-98.2969,0v49.149m49.1483,0h-49.1483m49.1483,0v49.148m0-49.148h49.1486m-98.2969,0v49.148m49.1483,0h-49.1483m49.1483,0v49.149m0-49.149h49.1486m-98.2969,0v49.149m49.1483,0h-49.1483m49.1483,0v49.148m0-49.148h49.1486m-98.2969,0v49.148m49.1483,0h-49.1483m49.1483,0v49.149m0-49.149h49.1486m-98.2969,0v49.149m49.1483,0h-49.1483m49.1483,0v49.149m0-49.149h49.1486m-98.2969,0v49.149m49.1483,0h-49.1483m49.1483,0v49.148m0-49.148h49.1486m-98.2969,0v49.148m49.1483,0h-49.1483m49.1483,0v49.149m0-49.149h49.1486m-98.2969,0v49.149m49.1483,0h-49.1483m49.1483,0v49.149m0-49.149h49.1486m-98.2969,0v49.149m49.1483,0h-49.1483m49.1483,0v49.148m0-49.148h49.1486m-98.2969,0v49.148m49.1483,0h-49.1483m49.1483,0v49.149m0-49.149h49.1486m-98.2969,0v49.149h49.1483m0,0h49.1486m0-982.973v49.1489m0-49.1489h49.1486m-49.1486,49.1489v49.1486m0-49.1486h49.1486m-49.1486,49.1486v49.1486m0-49.1486h49.1486M-37.6251,13.0611v49.1487m0-49.1487h49.1486M-37.6251,62.2098v49.1482m0-49.1482h49.1486M-37.6251,111.358v49.149m0-49.149h49.1486m-49.1486,49.149v49.149m0-49.149h49.1486m-49.1486,49.149v49.148m0-49.148h49.1486m-49.1486,49.148v49.149m0-49.149h49.1486m-49.1486,49.149v49.149m0-49.149h49.1486m-49.1486,49.149v49.148m0-49.148h49.1486M-37.6251,406.25v49.149m0-49.149h49.1486m-49.1486,49.149v49.148m0-49.148h49.1486m-49.1486,49.148v49.149m0-49.149h49.1486m-49.1486,49.149v49.149m0-49.149h49.1486m-49.1486,49.149v49.148m0-49.148h49.1486m-49.1486,49.148v49.149m0-49.149h49.1486m-49.1486,49.149v49.149m0-49.149h49.1486m-49.1486,49.149v49.148m0-49.148h49.1486m-49.1486,49.148v49.149m0-49.149h49.1486m-49.1486,49.149h49.1486m0-982.973v49.1489m0-49.1489h49.1486M11.5235,-85.2361v49.1486m0-49.1486h49.1486M11.5235,-36.0875v49.1486m0-49.1486h49.1486M11.5235,13.0611v49.1487m0-49.1487h49.1486M11.5235,62.2098v49.1482m0-49.1482h49.1486M11.5235,111.358v49.149m0-49.149h49.1486M11.5235,160.507v49.149m0-49.149h49.1486M11.5235,209.656v49.148m0-49.148h49.1486M11.5235,258.804v49.149m0-49.149h49.1486M11.5235,307.953v49.149m0-49.149h49.1486M11.5235,357.102v49.148m0-49.148h49.1486M11.5235,406.25v49.149m0-49.149h49.1486M11.5235,455.399v49.148m0-49.148h49.1486M11.5235,504.547v49.149m0-49.149h49.1486M11.5235,553.696v49.149m0-49.149h49.1486M11.5235,602.845v49.148m0-49.148h49.1486M11.5235,651.993v49.149m0-49.149h49.1486M11.5235,701.142v49.149m0-49.149h49.1486M11.5235,750.291v49.148m0-49.148h49.1486M11.5235,799.439v49.149m0-49.149h49.1486M11.5235,848.588h49.1486m0-982.973v49.1489m0-49.1489h49.1489M60.6721,-85.2361v49.1486m0-49.1486h49.1489M60.6721,-36.0875v49.1486m0-49.1486h49.1489M60.6721,13.0611v49.1487m0-49.1487h49.1489M60.6721,62.2098v49.1482m0-49.1482h49.1489M60.6721,111.358v49.149m0-49.149h49.1489M60.6721,160.507v49.149m0-49.149h49.1489M60.6721,209.656v49.148m0-49.148h49.1489M60.6721,258.804v49.149m0-49.149h49.1489M60.6721,307.953v49.149m0-49.149h49.1489M60.6721,357.102v49.148m0-49.148h49.1489M60.6721,406.25v49.149m0-49.149h49.1489M60.6721,455.399v49.148m0-49.148h49.1489M60.6721,504.547v49.149m0-49.149h49.1489M60.6721,553.696v49.149m0-49.149h49.1489M60.6721,602.845v49.148m0-49.148h49.1489M60.6721,651.993v49.149m0-49.149h49.1489M60.6721,701.142v49.149m0-49.149h49.1489M60.6721,750.291v49.148m0-49.148h49.1489M60.6721,799.439v49.149m0-49.149h49.1489M60.6721,848.588h49.1489m0-982.973v49.1489m0-49.1489h49.148m-49.148,49.1489v49.1486m0-49.1486h49.148m-49.148,49.1486v49.1486m0-49.1486h49.148M109.821,13.0611v49.1487m0-49.1487h49.148M109.821,62.2098v49.1482m0-49.1482h49.148M109.821,111.358v49.149m0-49.149h49.148m-49.148,49.149v49.149m0-49.149h49.148m-49.148,49.149v49.148m0-49.148h49.148m-49.148,49.148v49.149m0-49.149h49.148m-49.148,49.149v49.149m0-49.149h49.148m-49.148,49.149v49.148m0-49.148h49.148M109.821,406.25v49.149m0-49.149h49.148m-49.148,49.149v49.148m0-49.148h49.148m-49.148,49.148v49.149m0-49.149h49.148m-49.148,49.149v49.149m0-49.149h49.148m-49.148,49.149v49.148m0-49.148h49.148m-49.148,49.148v49.149m0-49.149h49.148m-49.148,49.149v49.149m0-49.149h49.148m-49.148,49.149v49.148m0-49.148h49.148m-49.148,49.148v49.149m0-49.149h49.148m-49.148,49.149h49.148m0-982.973v49.1489m0-49.1489h49.149m-49.149,49.1489v49.1486m0-49.1486h49.149m-49.149,49.1486v49.1486m0-49.1486h49.149M158.969,13.0611v49.1487m0-49.1487h49.149M158.969,62.2098v49.1482m0-49.1482h49.149M158.969,111.358v49.149m0-49.149h49.149m-49.149,49.149v49.149m0-49.149h49.149m-49.149,49.149v49.148m0-49.148h49.149m-49.149,49.148v49.149m0-49.149h49.149m-49.149,49.149v49.149m0-49.149h49.149m-49.149,49.149v49.148m0-49.148h49.149M158.969,406.25v49.149m0-49.149h49.149m-49.149,49.149v49.148m0-49.148h49.149m-49.149,49.148v49.149m0-49.149h49.149m-49.149,49.149v49.149m0-49.149h49.149m-49.149,49.149v49.148m0-49.148h49.149m-49.149,49.148v49.149m0-49.149h49.149m-49.149,49.149v49.149m0-49.149h49.149m-49.149,49.149v49.148m0-49.148h49.149m-49.149,49.148v49.149m0-49.149h49.149m-49.149,49.149h49.149m0-982.973v49.1489m0-49.1489h49.149m-49.149,49.1489v49.1486m0-49.1486h49.149m-49.149,49.1486v49.1486m0-49.1486h49.149M208.118,13.0611v49.1487m0-49.1487h49.149M208.118,62.2098v49.1482m0-49.1482h49.149M208.118,111.358v49.149m0-49.149h49.149m-49.149,49.149v49.149m0-49.149h49.149m-49.149,49.149v49.148m0-49.148h49.149m-49.149,49.148v49.149m0-49.149h49.149m-49.149,49.149v49.149m0-49.149h49.149m-49.149,49.149v49.148m0-49.148h49.149M208.118,406.25v49.149m0-49.149h49.149m-49.149,49.149v49.148m0-49.148h49.149m-49.149,49.148v49.149m0-49.149h49.149m-49.149,49.149v49.149m0-49.149h49.149m-49.149,49.149v49.148m0-49.148h49.149m-49.149,49.148v49.149m0-49.149h49.149m-49.149,49.149v49.149m0-49.149h49.149m-49.149,49.149v49.148m0-49.148h49.149m-49.149,49.148v49.149m0-49.149h49.149m-49.149,49.149h49.149m0-982.973v49.1489m0-49.1489h49.148m-49.148,49.1489v49.1486m0-49.1486h49.148m-49.148,49.1486v49.1486m0-49.1486h49.148M257.267,13.0611v49.1487m0-49.1487h49.148M257.267,62.2098v49.1482m0-49.1482h49.148M257.267,111.358v49.149m0-49.149h49.148m-49.148,49.149v49.149m0-49.149h49.148m-49.148,49.149v49.148m0-49.148h49.148m-49.148,49.148v49.149m0-49.149h49.148m-49.148,49.149v49.149m0-49.149h49.148m-49.148,49.149v49.148m0-49.148h49.148M257.267,406.25v49.149m0-49.149h49.148m-49.148,49.149v49.148m0-49.148h49.148m-49.148,49.148v49.149m0-49.149h49.148m-49.148,49.149v49.149m0-49.149h49.148m-49.148,49.149v49.148m0-49.148h49.148m-49.148,49.148v49.149m0-49.149h49.148m-49.148,49.149v49.149m0-49.149h49.148m-49.148,49.149v49.148m0-49.148h49.148m-49.148,49.148v49.149m0-49.149h49.148m-49.148,49.149h49.148m0-982.973v49.1489m0-49.1489h49.149m-49.149,49.1489v49.1486m0-49.1486h49.149m-49.149,49.1486v49.1486m0-49.1486h49.149M306.415,13.0611v49.1487m0-49.1487h49.149M306.415,62.2098v49.1482m0-49.1482h49.149M306.415,111.358v49.149m0-49.149h49.149m-49.149,49.149v49.149m0-49.149h49.149m-49.149,49.149v49.148m0-49.148h49.149m-49.149,49.148v49.149m0-49.149h49.149m-49.149,49.149v49.149m0-49.149h49.149m-49.149,49.149v49.148m0-49.148h49.149M306.415,406.25v49.149m0-49.149h49.149m-49.149,49.149v49.148m0-49.148h49.149m-49.149,49.148v49.149m0-49.149h49.149m-49.149,49.149v49.149m0-49.149h49.149m-49.149,49.149v49.148m0-49.148h49.149m-49.149,49.148v49.149m0-49.149h49.149m-49.149,49.149v49.149m0-49.149h49.149m-49.149,49.149v49.148m0-49.148h49.149m-49.149,49.148v49.149m0-49.149h49.149m-49.149,49.149h49.149m0-982.973v49.1489m0-49.1489h49.149m-49.149,49.1489v49.1486m0-49.1486h49.149m-49.149,49.1486v49.1486m0-49.1486h49.149M355.564,13.0611v49.1487m0-49.1487h49.149M355.564,62.2098v49.1482m0-49.1482h49.149M355.564,111.358v49.149m0-49.149h49.149m-49.149,49.149v49.149m0-49.149h49.149m-49.149,49.149v49.148m0-49.148h49.149m-49.149,49.148v49.149m0-49.149h49.149m-49.149,49.149v49.149m0-49.149h49.149m-49.149,49.149v49.148m0-49.148h49.149M355.564,406.25v49.149m0-49.149h49.149m-49.149,49.149v49.148m0-49.148h49.149m-49.149,49.148v49.149m0-49.149h49.149m-49.149,49.149v49.149m0-49.149h49.149m-49.149,49.149v49.148m0-49.148h49.149m-49.149,49.148v49.149m0-49.149h49.149m-49.149,49.149v49.149m0-49.149h49.149m-49.149,49.149v49.148m0-49.148h49.149m-49.149,49.148v49.149m0-49.149h49.149m-49.149,49.149h49.149m0-982.973v49.1489m0-49.1489h49.148m-49.148,49.1489v49.1486m0-49.1486h49.148m-49.148,49.1486v49.1486m0-49.1486h49.148M404.713,13.0611v49.1487m0-49.1487h49.148M404.713,62.2098v49.1482m0-49.1482h49.148M404.713,111.358v49.149m0-49.149h49.148m-49.148,49.149v49.149m0-49.149h49.148m-49.148,49.149v49.148m0-49.148h49.148m-49.148,49.148v49.149m0-49.149h49.148m-49.148,49.149v49.149m0-49.149h49.148m-49.148,49.149v49.148m0-49.148h49.148M404.713,406.25v49.149m0-49.149h49.148m-49.148,49.149v49.148m0-49.148h49.148m-49.148,49.148v49.149m0-49.149h49.148m-49.148,49.149v49.149m0-49.149h49.148m-49.148,49.149v49.148m0-49.148h49.148m-49.148,49.148v49.149m0-49.149h49.148m-49.148,49.149v49.149m0-49.149h49.148m-49.148,49.149v49.148m0-49.148h49.148m-49.148,49.148v49.149m0-49.149h49.148m-49.148,49.149h49.148m0-982.973v49.1489m0-49.1489h49.149m-49.149,49.1489v49.1486m0-49.1486h49.149m-49.149,49.1486v49.1486m0-49.1486h49.149M453.861,13.0611v49.1487m0-49.1487h49.149M453.861,62.2098v49.1482m0-49.1482h49.149M453.861,111.358v49.149m0-49.149h49.149m-49.149,49.149v49.149m0-49.149h49.149m-49.149,49.149v49.148m0-49.148h49.149m-49.149,49.148v49.149m0-49.149h49.149m-49.149,49.149v49.149m0-49.149h49.149m-49.149,49.149v49.148m0-49.148h49.149M453.861,406.25v49.149m0-49.149h49.149m-49.149,49.149v49.148m0-49.148h49.149m-49.149,49.148v49.149m0-49.149h49.149m-49.149,49.149v49.149m0-49.149h49.149m-49.149,49.149v49.148m0-49.148h49.149m-49.149,49.148v49.149m0-49.149h49.149m-49.149,49.149v49.149m0-49.149h49.149m-49.149,49.149v49.148m0-49.148h49.149m-49.149,49.148v49.149m0-49.149h49.149m-49.149,49.149h49.149m0-982.973v49.1489m0-49.1489h49.148M503.01,-85.2361v49.1486m0-49.1486h49.148M503.01,-36.0875v49.1486m0-49.1486h49.148M503.01,13.0611v49.1487m0-49.1487h49.148M503.01,62.2098v49.1482m0-49.1482h49.148M503.01,111.358v49.149m0-49.149h49.148M503.01,160.507v49.149m0-49.149h49.148M503.01,209.656v49.148m0-49.148h49.148M503.01,258.804v49.149m0-49.149h49.148M503.01,307.953v49.149m0-49.149h49.148M503.01,357.102v49.148m0-49.148h49.148M503.01,406.25v49.149m0-49.149h49.148M503.01,455.399v49.148m0-49.148h49.148M503.01,504.547v49.149m0-49.149h49.148M503.01,553.696v49.149m0-49.149h49.148M503.01,602.845v49.148m0-49.148h49.148M503.01,651.993v49.149m0-49.149h49.148M503.01,701.142v49.149m0-49.149h49.148M503.01,750.291v49.148m0-49.148h49.148M503.01,799.439v49.149m0-49.149h49.148M503.01,848.588h49.148m0-982.973v49.1489m0-49.1489h49.149m-49.149,49.1489v49.1486m0-49.1486h49.149m-49.149,49.1486v49.1486m0-49.1486h49.149M552.158,13.0611v49.1487m0-49.1487h49.149M552.158,62.2098v49.1482m0-49.1482h49.149M552.158,111.358v49.149m0-49.149h49.149m-49.149,49.149v49.149m0-49.149h49.149m-49.149,49.149v49.148m0-49.148h49.149m-49.149,49.148v49.149m0-49.149h49.149m-49.149,49.149v49.149m0-49.149h49.149m-49.149,49.149v49.148m0-49.148h49.149M552.158,406.25v49.149m0-49.149h49.149m-49.149,49.149v49.148m0-49.148h49.149m-49.149,49.148v49.149m0-49.149h49.149m-49.149,49.149v49.149m0-49.149h49.149m-49.149,49.149v49.148m0-49.148h49.149m-49.149,49.148v49.149m0-49.149h49.149m-49.149,49.149v49.149m0-49.149h49.149m-49.149,49.149v49.148m0-49.148h49.149m-49.149,49.148v49.149m0-49.149h49.149m-49.149,49.149h49.149m0-982.973v49.1489m0-49.1489h49.149m-49.149,49.1489v49.1486m0-49.1486h49.149m-49.149,49.1486v49.1486m0-49.1486h49.149M601.307,13.0611v49.1487m0-49.1487h49.149M601.307,62.2098v49.1482m0-49.1482h49.149M601.307,111.358v49.149m0-49.149h49.149m-49.149,49.149v49.149m0-49.149h49.149m-49.149,49.149v49.148m0-49.148h49.149m-49.149,49.148v49.149m0-49.149h49.149m-49.149,49.149v49.149m0-49.149h49.149m-49.149,49.149v49.148m0-49.148h49.149M601.307,406.25v49.149m0-49.149h49.149m-49.149,49.149v49.148m0-49.148h49.149m-49.149,49.148v49.149m0-49.149h49.149m-49.149,49.149v49.149m0-49.149h49.149m-49.149,49.149v49.148m0-49.148h49.149m-49.149,49.148v49.149m0-49.149h49.149m-49.149,49.149v49.149m0-49.149h49.149m-49.149,49.149v49.148m0-49.148h49.149m-49.149,49.148v49.149m0-49.149h49.149m-49.149,49.149h49.149m0-982.973v49.1489m0-49.1489h49.148m-49.148,49.1489v49.1486m0-49.1486h49.148m-49.148,49.1486v49.1486m0-49.1486h49.148M650.456,13.0611v49.1487m0-49.1487h49.148M650.456,62.2098v49.1482m0-49.1482h49.148M650.456,111.358v49.149m0-49.149h49.148m-49.148,49.149v49.149m0-49.149h49.148m-49.148,49.149v49.148m0-49.148h49.148m-49.148,49.148v49.149m0-49.149h49.148m-49.148,49.149v49.149m0-49.149h49.148m-49.148,49.149v49.148m0-49.148h49.148M650.456,406.25v49.149m0-49.149h49.148m-49.148,49.149v49.148m0-49.148h49.148m-49.148,49.148v49.149m0-49.149h49.148m-49.148,49.149v49.149m0-49.149h49.148m-49.148,49.149v49.148m0-49.148h49.148m-49.148,49.148v49.149m0-49.149h49.148m-49.148,49.149v49.149m0-49.149h49.148m-49.148,49.149v49.148m0-49.148h49.148m-49.148,49.148v49.149m0-49.149h49.148m-49.148,49.149h49.148m0-982.973v49.1489m0-49.1489h49.149m-49.149,49.1489v49.1486m0-49.1486h49.149m-49.149,49.1486v49.1486m0-49.1486h49.149M699.604,13.0611v49.1487m0-49.1487h49.149M699.604,62.2098v49.1482m0-49.1482h49.149M699.604,111.358v49.149m0-49.149h49.149m-49.149,49.149v49.149m0-49.149h49.149m-49.149,49.149v49.148m0-49.148h49.149m-49.149,49.148v49.149m0-49.149h49.149m-49.149,49.149v49.149m0-49.149h49.149m-49.149,49.149v49.148m0-49.148h49.149M699.604,406.25v49.149m0-49.149h49.149m-49.149,49.149v49.148m0-49.148h49.149m-49.149,49.148v49.149m0-49.149h49.149m-49.149,49.149v49.149m0-49.149h49.149m-49.149,49.149v49.148m0-49.148h49.149m-49.149,49.148v49.149m0-49.149h49.149m-49.149,49.149v49.149m0-49.149h49.149m-49.149,49.149v49.148m0-49.148h49.149m-49.149,49.148v49.149m0-49.149h49.149m-49.149,49.149h49.149m0-982.973v49.1489m0-49.1489h49.149m-49.149,49.1489v49.1486m0-49.1486h49.149m-49.149,49.1486v49.1486m0-49.1486h49.149M748.753,13.0611v49.1487m0-49.1487h49.149M748.753,62.2098v49.1482m0-49.1482h49.149M748.753,111.358v49.149m0-49.149h49.149m-49.149,49.149v49.149m0-49.149h49.149m-49.149,49.149v49.148m0-49.148h49.149m-49.149,49.148v49.149m0-49.149h49.149m-49.149,49.149v49.149m0-49.149h49.149m-49.149,49.149v49.148m0-49.148h49.149M748.753,406.25v49.149m0-49.149h49.149m-49.149,49.149v49.148m0-49.148h49.149m-49.149,49.148v49.149m0-49.149h49.149m-49.149,49.149v49.149m0-49.149h49.149m-49.149,49.149v49.148m0-49.148h49.149m-49.149,49.148v49.149m0-49.149h49.149m-49.149,49.149v49.149m0-49.149h49.149m-49.149,49.149v49.148m0-49.148h49.149m-49.149,49.148v49.149m0-49.149h49.149m-49.149,49.149h49.149m0-982.973v49.1489m0-49.1489h49.148m-49.148,49.1489v49.1486m0-49.1486h49.148m-49.148,49.1486v49.1486m0-49.1486h49.148M797.902,13.0611v49.1487m0-49.1487h49.148M797.902,62.2098v49.1482m0-49.1482h49.148M797.902,111.358v49.149m0-49.149h49.148m-49.148,49.149v49.149m0-49.149h49.148m-49.148,49.149v49.148m0-49.148h49.148m-49.148,49.148v49.149m0-49.149h49.148m-49.148,49.149v49.149m0-49.149h49.148m-49.148,49.149v49.148m0-49.148h49.148M797.902,406.25v49.149m0-49.149h49.148m-49.148,49.149v49.148m0-49.148h49.148m-49.148,49.148v49.149m0-49.149h49.148m-49.148,49.149v49.149m0-49.149h49.148m-49.148,49.149v49.148m0-49.148h49.148m-49.148,49.148v49.149m0-49.149h49.148m-49.148,49.149v49.149m0-49.149h49.148m-49.148,49.149v49.148m0-49.148h49.148m-49.148,49.148v49.149m0-49.149h49.148m-49.148,49.149h49.148m0-982.973v49.1489m0-49.1489h49.149M847.05,-85.2361v49.1486m0-49.1486h49.149M847.05,-36.0875v49.1486m0-49.1486h49.149M847.05,13.0611v49.1487m0-49.1487h49.149M847.05,62.2098v49.1482m0-49.1482h49.149M847.05,111.358v49.149m0-49.149h49.149M847.05,160.507v49.149m0-49.149h49.149M847.05,209.656v49.148m0-49.148h49.149M847.05,258.804v49.149m0-49.149h49.149M847.05,307.953v49.149m0-49.149h49.149M847.05,357.102v49.148m0-49.148h49.149M847.05,406.25v49.149m0-49.149h49.149M847.05,455.399v49.148m0-49.148h49.149M847.05,504.547v49.149m0-49.149h49.149M847.05,553.696v49.149m0-49.149h49.149M847.05,602.845v49.148m0-49.148h49.149M847.05,651.993v49.149m0-49.149h49.149M847.05,701.142v49.149m0-49.149h49.149M847.05,750.291v49.148m0-49.148h49.149M847.05,799.439v49.149m0-49.149h49.149M847.05,848.588h49.149m0-982.973v49.1489m0-49.1489h49.149m-49.149,49.1489v49.1486m0-49.1486h49.149m-49.149,49.1486v49.1486m0-49.1486h49.149M896.199,13.0611v49.1487m0-49.1487h49.149M896.199,62.2098v49.1482m0-49.1482h49.149M896.199,111.358v49.149m0-49.149h49.149m-49.149,49.149v49.149m0-49.149h49.149m-49.149,49.149v49.148m0-49.148h49.149m-49.149,49.148v49.149m0-49.149h49.149m-49.149,49.149v49.149m0-49.149h49.149m-49.149,49.149v49.148m0-49.148h49.149M896.199,406.25v49.149m0-49.149h49.149m-49.149,49.149v49.148m0-49.148h49.149m-49.149,49.148v49.149m0-49.149h49.149m-49.149,49.149v49.149m0-49.149h49.149m-49.149,49.149v49.148m0-49.148h49.149m-49.149,49.148v49.149m0-49.149h49.149m-49.149,49.149v49.149m0-49.149h49.149m-49.149,49.149v49.148m0-49.148h49.149m-49.149,49.148v49.149m0-49.149h49.149m-49.149,49.149h49.149m0-982.973v49.1489m0-49.1489h49.148m-49.148,49.1489v49.1486m0-49.1486h49.148m-49.148,49.1486v49.1486m0-49.1486h49.148M945.348,13.0611v49.1487m0-49.1487h49.148M945.348,62.2098v49.1482m0-49.1482h49.148M945.348,111.358v49.149m0-49.149h49.148m-49.148,49.149v49.149m0-49.149h49.148m-49.148,49.149v49.148m0-49.148h49.148m-49.148,49.148v49.149m0-49.149h49.148m-49.148,49.149v49.149m0-49.149h49.148m-49.148,49.149v49.148m0-49.148h49.148M945.348,406.25v49.149m0-49.149h49.148m-49.148,49.149v49.148m0-49.148h49.148m-49.148,49.148v49.149m0-49.149h49.148m-49.148,49.149v49.149m0-49.149h49.148m-49.148,49.149v49.148m0-49.148h49.148m-49.148,49.148v49.149m0-49.149h49.148m-49.148,49.149v49.149m0-49.149h49.148m-49.148,49.149v49.148m0-49.148h49.148m-49.148,49.148v49.149m0-49.149h49.148m-49.148,49.149h49.148m0-982.973v49.1489m0-49.1489h49.144m-49.144,49.1489v49.1486m0-49.1486h49.144m-49.144,49.1486v49.1486m0-49.1486h49.144M994.496,13.0611v49.1487m0-49.1487h49.144M994.496,62.2098v49.1482m0-49.1482h49.144M994.496,111.358v49.149m0-49.149h49.144m-49.144,49.149v49.149m0-49.149h49.144m-49.144,49.149v49.148m0-49.148h49.144m-49.144,49.148v49.149m0-49.149h49.144m-49.144,49.149v49.149m0-49.149h49.144m-49.144,49.149v49.148m0-49.148h49.144M994.496,406.25v49.149m0-49.149h49.144m-49.144,49.149v49.148m0-49.148h49.144m-49.144,49.148v49.149m0-49.149h49.144m-49.144,49.149v49.149m0-49.149h49.144m-49.144,49.149v49.148m0-49.148h49.144m-49.144,49.148v49.149m0-49.149h49.144m-49.144,49.149v49.149m0-49.149h49.144m-49.144,49.149v49.148m0-49.148h49.144m-49.144,49.148v49.149m0-49.149h49.144m-49.144,49.149h49.144m0-982.973v49.1489m0-49.1489h49.15m-49.15,49.1489v49.1486m0-49.1486h49.15m-49.15,49.1486v49.1486m0-49.1486h49.15m-49.15,49.1486v49.1487m0-49.1487h49.15m-49.15,49.1487v49.1482m0-49.1482h49.15m-49.15,49.1482v49.149m0-49.149h49.15m-49.15,49.149v49.149m0-49.149h49.15m-49.15,49.149v49.148m0-49.148h49.15m-49.15,49.148v49.149m0-49.149h49.15m-49.15,49.149v49.149m0-49.149h49.15m-49.15,49.149v49.148m0-49.148h49.15m-49.15,49.148v49.149m0-49.149h49.15m-49.15,49.149v49.148m0-49.148h49.15m-49.15,49.148v49.149m0-49.149h49.15m-49.15,49.149v49.149m0-49.149h49.15m-49.15,49.149v49.148m0-49.148h49.15m-49.15,49.148v49.149m0-49.149h49.15m-49.15,49.149v49.149m0-49.149h49.15m-49.15,49.149v49.148m0-49.148h49.15m-49.15,49.148v49.149m0-49.149h49.15m-49.15,49.149h49.15m0-982.973v49.1489m0-49.1489h49.15m-49.15,49.1489v49.1486m0-49.1486h49.15m-49.15,49.1486v49.1486m0-49.1486h49.15m-49.15,49.1486v49.1487m0-49.1487h49.15m-49.15,49.1487v49.1482m0-49.1482h49.15m-49.15,49.1482v49.149m0-49.149h49.15m-49.15,49.149v49.149m0-49.149h49.15m-49.15,49.149v49.148m0-49.148h49.15m-49.15,49.148v49.149m0-49.149h49.15m-49.15,49.149v49.149m0-49.149h49.15m-49.15,49.149v49.148m0-49.148h49.15m-49.15,49.148v49.149m0-49.149h49.15m-49.15,49.149v49.148m0-49.148h49.15m-49.15,49.148v49.149m0-49.149h49.15m-49.15,49.149v49.149m0-49.149h49.15m-49.15,49.149v49.148m0-49.148h49.15m-49.15,49.148v49.149m0-49.149h49.15m-49.15,49.149v49.149m0-49.149h49.15m-49.15,49.149v49.148m0-49.148h49.15m-49.15,49.148v49.149m0-49.149h49.15m-49.15,49.149h49.15m0-982.973v49.1489m0-49.1489h49.15m-49.15,49.1489v49.1486m0-49.1486h49.15m-49.15,49.1486v49.1486m0-49.1486h49.15m-49.15,49.1486v49.1487m0-49.1487h49.15m-49.15,49.1487v49.1482m0-49.1482h49.15m-49.15,49.1482v49.149m0-49.149h49.15m-49.15,49.149v49.149m0-49.149h49.15m-49.15,49.149v49.148m0-49.148h49.15m-49.15,49.148v49.149m0-49.149h49.15m-49.15,49.149v49.149m0-49.149h49.15m-49.15,49.149v49.148m0-49.148h49.15m-49.15,49.148v49.149m0-49.149h49.15m-49.15,49.149v49.148m0-49.148h49.15m-49.15,49.148v49.149m0-49.149h49.15m-49.15,49.149v49.149m0-49.149h49.15m-49.15,49.149v49.148m0-49.148h49.15m-49.15,49.148v49.149m0-49.149h49.15m-49.15,49.149v49.149m0-49.149h49.15m-49.15,49.149v49.148m0-49.148h49.15m-49.15,49.148v49.149m0-49.149h49.15m-49.15,49.149h49.15m0-982.973v49.1489m0-49.1489h49.15m-49.15,49.1489v49.1486m0-49.1486h49.15m-49.15,49.1486v49.1486m0-49.1486h49.15m-49.15,49.1486v49.1487m0-49.1487h49.15m-49.15,49.1487v49.1482m0-49.1482h49.15m-49.15,49.1482v49.149m0-49.149h49.15m-49.15,49.149v49.149m0-49.149h49.15m-49.15,49.149v49.148m0-49.148h49.15m-49.15,49.148v49.149m0-49.149h49.15m-49.15,49.149v49.149m0-49.149h49.15m-49.15,49.149v49.148m0-49.148h49.15m-49.15,49.148v49.149m0-49.149h49.15m-49.15,49.149v49.148m0-49.148h49.15m-49.15,49.148v49.149m0-49.149h49.15m-49.15,49.149v49.149m0-49.149h49.15m-49.15,49.149v49.148m0-49.148h49.15m-49.15,49.148v49.149m0-49.149h49.15m-49.15,49.149v49.149m0-49.149h49.15m-49.15,49.149v49.148m0-49.148h49.15m-49.15,49.148v49.149m0-49.149h49.15m-49.15,49.149h49.15m0-982.973v49.1489m0-49.1489h49.15m-49.15,49.1489v49.1486m0-49.1486h49.15m-49.15,49.1486v49.1486m0-49.1486h49.15m-49.15,49.1486v49.1487m0-49.1487h49.15m-49.15,49.1487v49.1482m0-49.1482h49.15m-49.15,49.1482v49.149m0-49.149h49.15m-49.15,49.149v49.149m0-49.149h49.15m-49.15,49.149v49.148m0-49.148h49.15m-49.15,49.148v49.149m0-49.149h49.15m-49.15,49.149v49.149m0-49.149h49.15m-49.15,49.149v49.148m0-49.148h49.15m-49.15,49.148v49.149m0-49.149h49.15m-49.15,49.149v49.148m0-49.148h49.15m-49.15,49.148v49.149m0-49.149h49.15m-49.15,49.149v49.149m0-49.149h49.15m-49.15,49.149v49.148m0-49.148h49.15m-49.15,49.148v49.149m0-49.149h49.15m-49.15,49.149v49.149m0-49.149h49.15m-49.15,49.149v49.148m0-49.148h49.15m-49.15,49.148v49.149m0-49.149h49.15m-49.15,49.149h49.15m0-982.973v49.1489m0-49.1489h49.15m-49.15,49.1489v49.1486m0-49.1486h49.15m-49.15,49.1486v49.1486m0-49.1486h49.15m-49.15,49.1486v49.1487m0-49.1487h49.15m-49.15,49.1487v49.1482m0-49.1482h49.15m-49.15,49.1482v49.149m0-49.149h49.15m-49.15,49.149v49.149m0-49.149h49.15m-49.15,49.149v49.148m0-49.148h49.15m-49.15,49.148v49.149m0-49.149h49.15m-49.15,49.149v49.149m0-49.149h49.15m-49.15,49.149v49.148m0-49.148h49.15m-49.15,49.148v49.149m0-49.149h49.15m-49.15,49.149v49.148m0-49.148h49.15m-49.15,49.148v49.149m0-49.149h49.15m-49.15,49.149v49.149m0-49.149h49.15m-49.15,49.149v49.148m0-49.148h49.15m-49.15,49.148v49.149m0-49.149h49.15m-49.15,49.149v49.149m0-49.149h49.15m-49.15,49.149v49.148m0-49.148h49.15m-49.15,49.148v49.149m0-49.149h49.15m-49.15,49.149h49.15m0-982.973v49.1489m0-49.1489h49.15m-49.15,49.1489v49.1486m0-49.1486h49.15m-49.15,49.1486v49.1486m0-49.1486h49.15m-49.15,49.1486v49.1487m0-49.1487h49.15m-49.15,49.1487v49.1482m0-49.1482h49.15m-49.15,49.1482v49.149m0-49.149h49.15m-49.15,49.149v49.149m0-49.149h49.15m-49.15,49.149v49.148m0-49.148h49.15m-49.15,49.148v49.149m0-49.149h49.15m-49.15,49.149v49.149m0-49.149h49.15m-49.15,49.149v49.148m0-49.148h49.15m-49.15,49.148v49.149m0-49.149h49.15m-49.15,49.149v49.148m0-49.148h49.15m-49.15,49.148v49.149m0-49.149h49.15m-49.15,49.149v49.149m0-49.149h49.15m-49.15,49.149v49.148m0-49.148h49.15m-49.15,49.148v49.149m0-49.149h49.15m-49.15,49.149v49.149m0-49.149h49.15m-49.15,49.149v49.148m0-49.148h49.15m-49.15,49.148v49.149m0-49.149h49.15m-49.15,49.149h49.15m0-982.973v49.1489m0-49.1489h49.14m-49.14,49.1489v49.1486m0-49.1486h49.14m-49.14,49.1486v49.1486m0-49.1486h49.14m-49.14,49.1486v49.1487m0-49.1487h49.14m-49.14,49.1487v49.1482m0-49.1482h49.14m-49.14,49.1482v49.149m0-49.149h49.14m-49.14,49.149v49.149m0-49.149h49.14m-49.14,49.149v49.148m0-49.148h49.14m-49.14,49.148v49.149m0-49.149h49.14m-49.14,49.149v49.149m0-49.149h49.14m-49.14,49.149v49.148m0-49.148h49.14m-49.14,49.148v49.149m0-49.149h49.14m-49.14,49.149v49.148m0-49.148h49.14m-49.14,49.148v49.149m0-49.149h49.14m-49.14,49.149v49.149m0-49.149h49.14m-49.14,49.149v49.148m0-49.148h49.14m-49.14,49.148v49.149m0-49.149h49.14m-49.14,49.149v49.149m0-49.149h49.14m-49.14,49.149v49.148m0-49.148h49.14m-49.14,49.148v49.149m0-49.149h49.14m-49.14,49.149h49.14m0-982.973v49.1489m0-49.1489h49.15m-49.15,49.1489v49.1486m0-49.1486h49.15m-49.15,49.1486v49.1486m0-49.1486h49.15m-49.15,49.1486v49.1487m0-49.1487h49.15m-49.15,49.1487v49.1482m0-49.1482h49.15m-49.15,49.1482v49.149m0-49.149h49.15m-49.15,49.149v49.149m0-49.149h49.15m-49.15,49.149v49.148m0-49.148h49.15m-49.15,49.148v49.149m0-49.149h49.15m-49.15,49.149v49.149m0-49.149h49.15m-49.15,49.149v49.148m0-49.148h49.15m-49.15,49.148v49.149m0-49.149h49.15m-49.15,49.149v49.148m0-49.148h49.15m-49.15,49.148v49.149m0-49.149h49.15m-49.15,49.149v49.149m0-49.149h49.15m-49.15,49.149v49.148m0-49.148h49.15m-49.15,49.148v49.149m0-49.149h49.15m-49.15,49.149v49.149m0-49.149h49.15m-49.15,49.149v49.148m0-49.148h49.15m-49.15,49.148v49.149m0-49.149h49.15m-49.15,49.149h49.15m0-982.973v49.1489m0-49.1489h49.15m-49.15,49.1489v49.1486m0-49.1486h49.15m-49.15,49.1486v49.1486m0-49.1486h49.15m-49.15,49.1486v49.1487m0-49.1487h49.15m-49.15,49.1487v49.1482m0-49.1482h49.15m-49.15,49.1482v49.149m0-49.149h49.15m-49.15,49.149v49.149m0-49.149h49.15m-49.15,49.149v49.148m0-49.148h49.15m-49.15,49.148v49.149m0-49.149h49.15m-49.15,49.149v49.149m0-49.149h49.15m-49.15,49.149v49.148m0-49.148h49.15m-49.15,49.148v49.149m0-49.149h49.15m-49.15,49.149v49.148m0-49.148h49.15m-49.15,49.148v49.149m0-49.149h49.15m-49.15,49.149v49.149m0-49.149h49.15m-49.15,49.149v49.148m0-49.148h49.15m-49.15,49.148v49.149m0-49.149h49.15m-49.15,49.149v49.149m0-49.149h49.15m-49.15,49.149v49.148m0-49.148h49.15m-49.15,49.148v49.149m0-49.149h49.15m-49.15,49.149h49.15m0-982.973v49.1489m0-49.1489h49.15m-49.15,49.1489v49.1486m0-49.1486h49.15m-49.15,49.1486v49.1486m0-49.1486h49.15m-49.15,49.1486v49.1487m0-49.1487h49.15m-49.15,49.1487v49.1482m0-49.1482h49.15m-49.15,49.1482v49.149m0-49.149h49.15m-49.15,49.149v49.149m0-49.149h49.15m-49.15,49.149v49.148m0-49.148h49.15m-49.15,49.148v49.149m0-49.149h49.15m-49.15,49.149v49.149m0-49.149h49.15m-49.15,49.149v49.148m0-49.148h49.15m-49.15,49.148v49.149m0-49.149h49.15m-49.15,49.149v49.148m0-49.148h49.15m-49.15,49.148v49.149m0-49.149h49.15m-49.15,49.149v49.149m0-49.149h49.15m-49.15,49.149v49.148m0-49.148h49.15m-49.15,49.148v49.149m0-49.149h49.15m-49.15,49.149v49.149m0-49.149h49.15m-49.15,49.149v49.148m0-49.148h49.15m-49.15,49.148v49.149m0-49.149h49.15m-49.15,49.149h49.15m0-982.973v49.1489m0-49.1489h49.15m-49.15,49.1489v49.1486m0-49.1486h49.15m-49.15,49.1486v49.1486m0-49.1486h49.15m-49.15,49.1486v49.1487m0-49.1487h49.15m-49.15,49.1487v49.1482m0-49.1482h49.15m-49.15,49.1482v49.149m0-49.149h49.15m-49.15,49.149v49.149m0-49.149h49.15m-49.15,49.149v49.148m0-49.148h49.15m-49.15,49.148v49.149m0-49.149h49.15m-49.15,49.149v49.149m0-49.149h49.15m-49.15,49.149v49.148m0-49.148h49.15m-49.15,49.148v49.149m0-49.149h49.15m-49.15,49.149v49.148m0-49.148h49.15m-49.15,49.148v49.149m0-49.149h49.15m-49.15,49.149v49.149m0-49.149h49.15m-49.15,49.149v49.148m0-49.148h49.15m-49.15,49.148v49.149m0-49.149h49.15m-49.15,49.149v49.149m0-49.149h49.15m-49.15,49.149v49.148m0-49.148h49.15m-49.15,49.148v49.149m0-49.149h49.15m-49.15,49.149h49.15m0-982.973v49.1489m0-49.1489h49.15m-49.15,49.1489v49.1486m0-49.1486h49.15m-49.15,49.1486v49.1486m0-49.1486h49.15m-49.15,49.1486v49.1487m0-49.1487h49.15m-49.15,49.1487v49.1482m0-49.1482h49.15m-49.15,49.1482v49.149m0-49.149h49.15m-49.15,49.149v49.149m0-49.149h49.15m-49.15,49.149v49.148m0-49.148h49.15m-49.15,49.148v49.149m0-49.149h49.15m-49.15,49.149v49.149m0-49.149h49.15m-49.15,49.149v49.148m0-49.148h49.15m-49.15,49.148v49.149m0-49.149h49.15m-49.15,49.149v49.148m0-49.148h49.15m-49.15,49.148v49.149m0-49.149h49.15m-49.15,49.149v49.149m0-49.149h49.15m-49.15,49.149v49.148m0-49.148h49.15m-49.15,49.148v49.149m0-49.149h49.15m-49.15,49.149v49.149m0-49.149h49.15m-49.15,49.149v49.148m0-49.148h49.15m-49.15,49.148v49.149m0-49.149h49.15m-49.15,49.149h49.15m0-982.973v49.1489m0-49.1489h49.15m-49.15,49.1489v49.1486m0-49.1486h49.15m-49.15,49.1486v49.1486m0-49.1486h49.15m-49.15,49.1486v49.1487m0-49.1487h49.15m-49.15,49.1487v49.1482m0-49.1482h49.15m-49.15,49.1482v49.149m0-49.149h49.15m-49.15,49.149v49.149m0-49.149h49.15m-49.15,49.149v49.148m0-49.148h49.15m-49.15,49.148v49.149m0-49.149h49.15m-49.15,49.149v49.149m0-49.149h49.15m-49.15,49.149v49.148m0-49.148h49.15m-49.15,49.148v49.149m0-49.149h49.15m-49.15,49.149v49.148m0-49.148h49.15m-49.15,49.148v49.149m0-49.149h49.15m-49.15,49.149v49.149m0-49.149h49.15m-49.15,49.149v49.148m0-49.148h49.15m-49.15,49.148v49.149m0-49.149h49.15m-49.15,49.149v49.149m0-49.149h49.15m-49.15,49.149v49.148m0-49.148h49.15m-49.15,49.148v49.149m0-49.149h49.15m-49.15,49.149h49.15m0-982.973v49.1489m0-49.1489h49.14m-49.14,49.1489v49.1486m0-49.1486h49.14m-49.14,49.1486v49.1486m0-49.1486h49.14m-49.14,49.1486v49.1487m0-49.1487h49.14m-49.14,49.1487v49.1482m0-49.1482h49.14m-49.14,49.1482v49.149m0-49.149h49.14m-49.14,49.149v49.149m0-49.149h49.14m-49.14,49.149v49.148m0-49.148h49.14m-49.14,49.148v49.149m0-49.149h49.14m-49.14,49.149v49.149m0-49.149h49.14m-49.14,49.149v49.148m0-49.148h49.14m-49.14,49.148v49.149m0-49.149h49.14m-49.14,49.149v49.148m0-49.148h49.14m-49.14,49.148v49.149m0-49.149h49.14m-49.14,49.149v49.149m0-49.149h49.14m-49.14,49.149v49.148m0-49.148h49.14m-49.14,49.148v49.149m0-49.149h49.14m-49.14,49.149v49.149m0-49.149h49.14m-49.14,49.149v49.148m0-49.148h49.14m-49.14,49.148v49.149m0-49.149h49.14m-49.14,49.149h49.14m0-982.973v49.1489m0-49.1489h49.15m-49.15,49.1489v49.1486m0-49.1486h49.15m-49.15,49.1486v49.1486m0-49.1486h49.15m-49.15,49.1486v49.1487m0-49.1487h49.15m-49.15,49.1487v49.1482m0-49.1482h49.15m-49.15,49.1482v49.149m0-49.149h49.15m-49.15,49.149v49.149m0-49.149h49.15m-49.15,49.149v49.148m0-49.148h49.15m-49.15,49.148v49.149m0-49.149h49.15m-49.15,49.149v49.149m0-49.149h49.15m-49.15,49.149v49.148m0-49.148h49.15m-49.15,49.148v49.149m0-49.149h49.15m-49.15,49.149v49.148m0-49.148h49.15m-49.15,49.148v49.149m0-49.149h49.15m-49.15,49.149v49.149m0-49.149h49.15m-49.15,49.149v49.148m0-49.148h49.15m-49.15,49.148v49.149m0-49.149h49.15m-49.15,49.149v49.149m0-49.149h49.15m-49.15,49.149v49.148m0-49.148h49.15m-49.15,49.148v49.149m0-49.149h49.15m-49.15,49.149h49.15m0-982.973v49.1489m0-49.1489h49.15m-49.15,49.1489v49.1486m0-49.1486h49.15m-49.15,49.1486v49.1486m0-49.1486h49.15m-49.15,49.1486v49.1487m0-49.1487h49.15m-49.15,49.1487v49.1482m0-49.1482h49.15m-49.15,49.1482v49.149m0-49.149h49.15m-49.15,49.149v49.149m0-49.149h49.15m-49.15,49.149v49.148m0-49.148h49.15m-49.15,49.148v49.149m0-49.149h49.15m-49.15,49.149v49.149m0-49.149h49.15m-49.15,49.149v49.148m0-49.148h49.15m-49.15,49.148v49.149m0-49.149h49.15m-49.15,49.149v49.148m0-49.148h49.15m-49.15,49.148v49.149m0-49.149h49.15m-49.15,49.149v49.149m0-49.149h49.15m-49.15,49.149v49.148m0-49.148h49.15m-49.15,49.148v49.149m0-49.149h49.15m-49.15,49.149v49.149m0-49.149h49.15m-49.15,49.149v49.148m0-49.148h49.15m-49.15,49.148v49.149m0-49.149h49.15m-49.15,49.149h49.15m0-982.973v49.1489m0-49.1489h49.15m-49.15,49.1489v49.1486m0-49.1486h49.15m-49.15,49.1486v49.1486m0-49.1486h49.15m-49.15,49.1486v49.1487m0-49.1487h49.15m-49.15,49.1487v49.1482m0-49.1482h49.15m-49.15,49.1482v49.149m0-49.149h49.15m-49.15,49.149v49.149m0-49.149h49.15m-49.15,49.149v49.148m0-49.148h49.15m-49.15,49.148v49.149m0-49.149h49.15m-49.15,49.149v49.149m0-49.149h49.15m-49.15,49.149v49.148m0-49.148h49.15m-49.15,49.148v49.149m0-49.149h49.15m-49.15,49.149v49.148m0-49.148h49.15m-49.15,49.148v49.149m0-49.149h49.15m-49.15,49.149v49.149m0-49.149h49.15m-49.15,49.149v49.148m0-49.148h49.15m-49.15,49.148v49.149m0-49.149h49.15m-49.15,49.149v49.149m0-49.149h49.15m-49.15,49.149v49.148m0-49.148h49.15m-49.15,49.148v49.149m0-49.149h49.15m-49.15,49.149h49.15m0-982.973v49.1489m0-49.1489h49.15m-49.15,49.1489v49.1486m0-49.1486h49.15m-49.15,49.1486v49.1486m0-49.1486h49.15m-49.15,49.1486v49.1487m0-49.1487h49.15m-49.15,49.1487v49.1482m0-49.1482h49.15m-49.15,49.1482v49.149m0-49.149h49.15m-49.15,49.149v49.149m0-49.149h49.15m-49.15,49.149v49.148m0-49.148h49.15m-49.15,49.148v49.149m0-49.149h49.15m-49.15,49.149v49.149m0-49.149h49.15m-49.15,49.149v49.148m0-49.148h49.15m-49.15,49.148v49.149m0-49.149h49.15m-49.15,49.149v49.148m0-49.148h49.15m-49.15,49.148v49.149m0-49.149h49.15m-49.15,49.149v49.149m0-49.149h49.15m-49.15,49.149v49.148m0-49.148h49.15m-49.15,49.148v49.149m0-49.149h49.15m-49.15,49.149v49.149m0-49.149h49.15m-49.15,49.149v49.148m0-49.148h49.15m-49.15,49.148v49.149m0-49.149h49.15m-49.15,49.149h49.15m0-982.973v49.1489m0-49.1489h49.15v49.1489m-49.15,0v49.1486m0-49.1486h49.15m-49.15,49.1486v49.1486m0-49.1486h49.15m-49.15,49.1486v49.1487m0-49.1487h49.15m-49.15,49.1487v49.1482m0-49.1482h49.15m-49.15,49.1482v49.149m0-49.149h49.15m-49.15,49.149v49.149m0-49.149h49.15m-49.15,49.149v49.148m0-49.148h49.15m-49.15,49.148v49.149m0-49.149h49.15m-49.15,49.149v49.149m0-49.149h49.15m-49.15,49.149v49.148m0-49.148h49.15m-49.15,49.148v49.149m0-49.149h49.15m-49.15,49.149v49.148m0-49.148h49.15m-49.15,49.148v49.149m0-49.149h49.15m-49.15,49.149v49.149m0-49.149h49.15m-49.15,49.149v49.148m0-49.148h49.15m-49.15,49.148v49.149m0-49.149h49.15m-49.15,49.149v49.149m0-49.149h49.15m-49.15,49.149v49.148m0-49.148h49.15m-49.15,49.148v49.149m0-49.149h49.15m-49.15,49.149h49.15v-49.149m0-884.6751v49.1486m0,0v49.1486m0,0v49.1487m0,0v49.1482m0,0v49.149m0,0v49.149m0,0v49.148m0,0v49.149m0,0v49.149m0,0v49.148m0,0v49.149m0,0v49.148m0,0v49.149m0,0v49.149m0,0v49.148m0,0v49.149m0,0v49.149m0,0v49.148" fill="none" stroke="url(#e8wVus6A0Nj11-stroke)" stroke-width="0.614358"/></g><g style="mix-blend-mode:soft-light" opacity="0.8"><path d="M60.672,47.4655v14.7446m0,0v14.7446m0-14.7446h-14.7446m14.7446,0h14.7445M60.672,440.655v14.744m0,0v14.745m0-14.745h-14.7446m14.7446,0h14.7445M60.672,833.844v14.744m0,0v14.745m0-14.745h-14.7446m14.7446,0h14.7445M453.861,47.4655v14.7446m0,0v14.7446m0-14.7446h-14.745m14.745,0h14.745M453.861,440.655v14.744m0,0v14.745m0-14.745h-14.745m14.745,0h14.745M453.861,833.844v14.744m0,0v14.745m0-14.745h-14.745m14.745,0h14.745M847.05,47.4655v14.7446m0,0v14.7446m0-14.7446h-14.745m14.745,0h14.745M847.05,440.655v14.744m0,0v14.745m0-14.745h-14.745m14.745,0h14.745M847.05,833.844v14.744m0,0v14.745m0-14.745h-14.745m14.745,0h14.745M1240.24,47.4655v14.7446m0,0v14.7446m0-14.7446h-14.75m14.75,0h14.74M1240.24,440.655v14.744m0,0v14.745m0-14.745h-14.75m14.75,0h14.74m-14.74,378.445v14.744m0,0v14.745m0-14.745h-14.75m14.75,0h14.74M1633.43,47.4655v14.7446m0,0v14.7446m0-14.7446h-14.75m14.75,0h14.74M1633.43,440.655v14.744m0,0v14.745m0-14.745h-14.75m14.75,0h14.74m-14.74,378.445v14.744m0,0v14.745m0-14.745h-14.75m14.75,0h14.74M2026.62,47.4655v14.7446m0,0v14.7446m0-14.7446h-14.75m14.75,0h14.74M2026.62,440.655v14.744m0,0v14.745m0-14.745h-14.75m14.75,0h14.74m-14.74,378.445v14.744m0,0v14.745m0-14.745h-14.75m14.75,0h14.74M60.672,-149.129v14.745m0,0v14.744m0-14.744h-14.7446m14.7446,0h14.7445M60.672,244.06v14.745m0,0v14.744m0-14.744h-14.7446m14.7446,0h14.7445M60.672,637.249v14.745m0,0v14.744m0-14.744h-14.7446m14.7446,0h14.7445M453.861,-149.129v14.745m0,0v14.744m0-14.744h-14.745m14.745,0h14.745M453.861,244.06v14.745m0,0v14.744m0-14.744h-14.745m14.745,0h14.745M453.861,637.249v14.745m0,0v14.744m0-14.744h-14.745m14.745,0h14.745M847.05,-149.129v14.745m0,0v14.744m0-14.744h-14.745m14.745,0h14.745M847.05,244.06v14.745m0,0v14.744m0-14.744h-14.745m14.745,0h14.745M847.05,637.249v14.745m0,0v14.744m0-14.744h-14.745m14.745,0h14.745m378.445-801.123v14.745m0,0v14.744m0-14.744h-14.75m14.75,0h14.74M1240.24,244.06v14.745m0,0v14.744m0-14.744h-14.75m14.75,0h14.74m-14.74,378.444v14.745m0,0v14.744m0-14.744h-14.75m14.75,0h14.74m378.45-801.123v14.745m0,0v14.744m0-14.744h-14.75m14.75,0h14.74M1633.43,244.06v14.745m0,0v14.744m0-14.744h-14.75m14.75,0h14.74m-14.74,378.444v14.745m0,0v14.744m0-14.744h-14.75m14.75,0h14.74m378.45-801.123v14.745m0,0v14.744m0-14.744h-14.75m14.75,0h14.74M2026.62,244.06v14.745m0,0v14.744m0-14.744h-14.75m14.75,0h14.74m-14.74,378.444v14.745m0,0v14.744m0-14.744h-14.75m14.75,0h14.74M-135.923,47.4655v14.7446m0,0v14.7446m0-14.7446h-14.744m14.744,0h14.745M-135.923,440.655v14.744m0,0v14.745m0-14.745h-14.744m14.744,0h14.745m-14.745,378.445v14.744m0,0v14.745m0-14.745h-14.744m14.744,0h14.745M257.267,47.4655v14.7446m0,0v14.7446m0-14.7446h-14.745m14.745,0h14.744M257.267,440.655v14.744m0,0v14.745m0-14.745h-14.745m14.745,0h14.744M257.267,833.844v14.744m0,0v14.745m0-14.745h-14.745m14.745,0h14.744M650.456,47.4655v14.7446m0,0v14.7446m0-14.7446h-14.745m14.745,0h14.744M650.456,440.655v14.744m0,0v14.745m0-14.745h-14.745m14.745,0h14.744M650.456,833.844v14.744m0,0v14.745m0-14.745h-14.745m14.745,0h14.744M1043.64,47.4655v14.7446m0,0v14.7446m0-14.7446h-14.74m14.74,0h14.75M1043.64,440.655v14.744m0,0v14.745m0-14.745h-14.74m14.74,0h14.75m-14.75,378.445v14.744m0,0v14.745m0-14.745h-14.74m14.74,0h14.75M1436.83,47.4655v14.7446m0,0v14.7446m0-14.7446h-14.74m14.74,0h14.75M1436.83,440.655v14.744m0,0v14.745m0-14.745h-14.74m14.74,0h14.75m-14.75,378.445v14.744m0,0v14.745m0-14.745h-14.74m14.74,0h14.75M1830.02,47.4655v14.7446m0,0v14.7446m0-14.7446h-14.74m14.74,0h14.75M1830.02,440.655v14.744m0,0v14.745m0-14.745h-14.74m14.74,0h14.75m-14.75,378.445v14.744m0,0v14.745m0-14.745h-14.74m14.74,0h14.75M-135.923,-149.129v14.745m0,0v14.744m0-14.744h-14.744m14.744,0h14.745M-135.923,244.06v14.745m0,0v14.744m0-14.744h-14.744m14.744,0h14.745m-14.745,378.444v14.745m0,0v14.744m0-14.744h-14.744m14.744,0h14.745m378.445-801.123v14.745m0,0v14.744m0-14.744h-14.745m14.745,0h14.744M257.267,244.06v14.745m0,0v14.744m0-14.744h-14.745m14.745,0h14.744M257.267,637.249v14.745m0,0v14.744m0-14.744h-14.745m14.745,0h14.744m378.445-801.123v14.745m0,0v14.744m0-14.744h-14.745m14.745,0h14.744M650.456,244.06v14.745m0,0v14.744m0-14.744h-14.745m14.745,0h14.744M650.456,637.249v14.745m0,0v14.744m0-14.744h-14.745m14.745,0h14.744m378.44-801.123v14.745m0,0v14.744m0-14.744h-14.74m14.74,0h14.75M1043.64,244.06v14.745m0,0v14.744m0-14.744h-14.74m14.74,0h14.75m-14.75,378.444v14.745m0,0v14.744m0-14.744h-14.74m14.74,0h14.75m378.44-801.123v14.745m0,0v14.744m0-14.744h-14.74m14.74,0h14.75M1436.83,244.06v14.745m0,0v14.744m0-14.744h-14.74m14.74,0h14.75m-14.75,378.444v14.745m0,0v14.744m0-14.744h-14.74m14.74,0h14.75m378.44-801.123v14.745m0,0v14.744m0-14.744h-14.74m14.74,0h14.75M1830.02,244.06v14.745m0,0v14.744m0-14.744h-14.74m14.74,0h14.75m-14.75,378.444v14.745m0,0v14.744m0-14.744h-14.74m14.74,0h14.75" fill="none" stroke="url(#e8wVus6A0Nj13-stroke)" stroke-width="1.22872"/></g></g><g style="mix-blend-mode:plus-lighter" opacity="0.1"><path d="M1016.57,163.249v-.406l71.66,231.081-.23-.339L859.873,663.06L791.272,441.845L941.374,312.813L744.601,291.35L676,70.1348l340.57,93.1142Zm334.7-60.033l-150.1,129.032l196.77,21.463l68.6,221.215-340.57-93.116.01.407-71.66-231.081.22.338L1282.67,-118l68.6,221.216Z" fill="#01a1fa" fill-opacity="0.5"/><path d="M1016.57,163.249l-.06.228.3.083v-.313l-.24.002Zm0-.406l.22-.07-.46.072.24-.002Zm71.66,231.081l-.2.131.42-.201-.22.07Zm-.23-.339l.2-.131-.18-.26-.2.239.18.152ZM859.873,663.06l-.226.07.128.411.278-.329-.18-.152ZM791.272,441.845l-.154-.179-.118.101.046.148.226-.07ZM941.374,312.813l.154.179.413-.355-.542-.059-.025.235ZM744.601,291.35l-.226.07.046.148.154.017.026-.235ZM676,70.1348l.062-.228-.416-.1136.128.4116.226-.07Zm675.27,33.0812l.16.179.11-.101-.04-.148-.23.07Zm-150.1,129.032l-.16-.18-.41.356.54.059.03-.235Zm196.77,21.463l.23-.07-.05-.148-.15-.017-.03.235Zm68.6,221.215l-.06.227.42.114-.13-.411-.23.07ZM1125.97,381.81l.06-.228-.3-.083.01.314.23-.003Zm.01.407l-.23.07.46-.073-.23.003Zm-71.66-231.081l.19-.131-.42.201.23-.07Zm.22.338l-.19.131.17.261.2-.239-.18-.153ZM1282.67,-118l.23-.07-.13-.411-.28.329.18.152Zm-266.1,281.249l.24-.002-.01-.407-.23.003-.24.002v.407l.24-.003Zm0-.406l-.23.07L1088,393.994l.23-.07.22-.07-71.66-231.081-.22.07Zm71.66,231.081l.19-.131-.22-.339-.2.131-.2.132.23.338.2-.131Zm-.23-.339l-.18-.152L859.693,662.907l.18.153.18.152L1088.18,393.738l-.18-.153ZM859.873,663.06l.226-.07-68.601-221.215-.226.07-.226.07L859.647,663.13l.226-.07ZM791.272,441.845l.154.179L941.528,312.992l-.154-.179-.154-.18L791.118,441.666l.154.179ZM941.374,312.813l.025-.235-196.772-21.463-.026.235-.026.235l196.773,21.463.026-.235ZM744.601,291.35l.226-.07L676.226,70.0648l-.226.07-.226.07L744.375,291.42l.226-.07ZM676,70.1348l-.063.2279L1016.51,163.477l.06-.228.06-.228L676.062,69.9068l-.062.228Zm675.27,33.0812l-.15-.179-150.11,129.031.16.18.15.179l150.11-129.032-.16-.179Zm-150.1,129.032l-.03.235l196.78,21.463.02-.235.03-.235-196.78-21.463-.02.235Zm196.77,21.463l-.22.07l68.6,221.215.22-.07.23-.07-68.6-221.215-.23.07Zm68.6,221.215l.06-.228-340.57-93.116-.06.228-.06.228l340.57,93.115.06-.227ZM1125.97,381.81l-.23.003v.407l.24-.003.23-.003v-.407l-.24.003Zm.01.407l.22-.07-71.66-231.081-.22.07-.23.07l71.66,231.081.23-.07Zm-71.66-231.081l-.2.131.23.338.19-.131.2-.131-.23-.338-.19.131Zm.22.338l.18.153l228.13-269.474-.18-.153-.18-.152-228.13,269.473.18.153ZM1282.67,-118l-.23.07l68.61,221.216.22-.07.23-.07-68.6-221.216-.23.07Z" fill="#112431" fill-opacity="0.2"/></g></g><clipPath id="e8wVus6A0Nj24"><rect width="1440" height="600" rx="0" ry="0" fill="#fff"/></clipPath></g></svg>
