<svg id="eawReKriJ5b1" xmlns="http://www.w3.org/2000/svg" xmlns:xlink="http://www.w3.org/1999/xlink" viewBox="0 0 1440 600" shape-rendering="geometricPrecision" text-rendering="geometricPrecision" project-id="55997866f536440e98287f16288e783f" export-id="0cedcc935dd341dbb55a6f475b110538" cached="false"><defs><filter id="eawReKriJ5b5-filter" x="-150%" y="-150%" width="400%" height="400%"><feGaussianBlur id="eawReKriJ5b5-filter-blur-0" stdDeviation="104.471001,104.471001" result="result"/></filter><radialGradient id="eawReKriJ5b15-stroke" cx="0" cy="0" r="1" spreadMethod="pad" gradientUnits="userSpaceOnUse" gradientTransform="matrix(0 491.486 -1081.27 0 945.348 357.102)"><stop id="eawReKriJ5b15-stroke-0" offset="0%" stop-color="rgba(0,0,0,0)"/><stop id="eawReKriJ5b15-stroke-1" offset="100%" stop-color="#040c17"/></radialGradient><radialGradient id="eawReKriJ5b17-stroke" cx="0" cy="0" r="1" spreadMethod="pad" gradientUnits="userSpaceOnUse" gradientTransform="matrix(0 506.231 -1096.01 0 945.348 357.102)"><stop id="eawReKriJ5b17-stroke-0" offset="0%" stop-color="rgba(0,0,0,0)"/><stop id="eawReKriJ5b17-stroke-1" offset="100%" stop-color="#000"/></radialGradient><filter id="eawReKriJ5b27-filter" x="-150%" y="-150%" width="400%" height="400%"><feGaussianBlur id="eawReKriJ5b27-filter-blur-0" stdDeviation="104.471001,104.471001" result="result"/></filter><radialGradient id="eawReKriJ5b37-stroke" cx="0" cy="0" r="1" spreadMethod="pad" gradientUnits="userSpaceOnUse" gradientTransform="matrix(0 491.486 -1081.27 0 945.348 357.102)"><stop id="eawReKriJ5b37-stroke-0" offset="0%" stop-color="rgba(0,0,0,0)"/><stop id="eawReKriJ5b37-stroke-1" offset="100%" stop-color="#040c17"/></radialGradient><radialGradient id="eawReKriJ5b39-stroke" cx="0" cy="0" r="1" spreadMethod="pad" gradientUnits="userSpaceOnUse" gradientTransform="matrix(0 506.231 -1096.01 0 945.348 357.102)"><stop id="eawReKriJ5b39-stroke-0" offset="0%" stop-color="rgba(0,0,0,0)"/><stop id="eawReKriJ5b39-stroke-1" offset="100%" stop-color="#000"/></radialGradient></defs><g transform="translate(-1.97911 0.12)" clip-path="url(#eawReKriJ5b22)"><g transform="translate(1.678877 -1.678877)"><rect width="1440" height="600" rx="0" ry="0" transform="matrix(1.0233 0 0 1 -16.776 0)" fill="#040c17"/><g filter="url(#eawReKriJ5b5-filter)"><ellipse rx="481.302" ry="245.959" transform="translate(1195.25 -72.3744)" fill="#861fff"/><ellipse rx="241.612" ry="105.373" transform="translate(574.757 -72.3742)" fill="#212bff"/><ellipse rx="307.017" ry="174.254" transform="translate(1200.61 211.314)" fill="#bb32ff"/><ellipse rx="313.622" ry="192.625" transform="translate(1129.99 281.096)" fill="#66dbef"/></g><g style="mix-blend-mode:plus-lighter" opacity="0.1"><path d="M1016.57,163.249v-.406l71.66,231.081-.23-.339L859.873,663.06L791.272,441.845L941.374,312.813L744.601,291.35L676,70.1348l340.57,93.1142Zm334.7-60.033l-150.1,129.032l196.77,21.463l68.6,221.215-340.57-93.116.01.407-71.66-231.081.22.338L1282.67,-118l68.6,221.216Z" fill="#01a1fa" fill-opacity="0.5"/><path d="M1016.57,163.249l-.06.228.3.083v-.313l-.24.002Zm0-.406l.22-.07-.46.072.24-.002Zm71.66,231.081l-.2.131.42-.201-.22.07Zm-.23-.339l.2-.131-.18-.26-.2.239.18.152ZM859.873,663.06l-.226.07.128.411.278-.329-.18-.152ZM791.272,441.845l-.154-.179-.117.101.045.148.226-.07ZM941.374,312.813l.154.179.413-.355-.542-.059-.025.235ZM744.601,291.35l-.226.07.046.148.155.017.025-.235ZM676,70.1348l.062-.228-.415-.1136.127.4116.226-.07Zm675.27,33.0812l.16.179.11-.101-.04-.148-.23.07Zm-150.1,129.032l-.16-.18-.41.356.54.059.03-.235Zm196.77,21.463l.23-.07-.05-.148-.15-.017-.03.235Zm68.6,221.215l-.06.227.42.114-.13-.411-.23.07ZM1125.97,381.81l.06-.228-.3-.083.01.314.23-.003Zm.01.407l-.23.07.46-.073-.23.003Zm-71.66-231.081l.19-.131-.42.201.23-.07Zm.22.338l-.19.131.17.261.2-.239-.18-.153ZM1282.67,-118l.23-.07-.13-.411-.28.329.18.152Zm-266.1,281.249l.24-.002-.01-.407-.23.003-.24.002v.407l.24-.003Zm0-.406l-.23.07L1088,393.994l.23-.07.22-.07-71.66-231.081-.22.07Zm71.66,231.081l.19-.131-.22-.339-.2.131-.2.132.23.338.2-.131Zm-.23-.339l-.18-.152L859.693,662.907l.18.153.18.152L1088.18,393.738l-.18-.153ZM859.873,663.06l.226-.07-68.601-221.215-.226.07-.226.07L859.647,663.13l.226-.07ZM791.272,441.845l.154.179L941.528,312.992l-.154-.179-.154-.18L791.118,441.666l.154.179ZM941.374,312.813l.025-.235-196.772-21.463-.026.235-.025.235l196.772,21.463.026-.235ZM744.601,291.35l.226-.07L676.226,70.0648l-.226.07-.226.07L744.375,291.42l.226-.07ZM676,70.1348l-.062.2279L1016.51,163.477l.06-.228.06-.228L676.062,69.9068l-.062.228Zm675.27,33.0812l-.15-.179-150.11,129.031.16.18.15.179l150.11-129.032-.16-.179Zm-150.1,129.032l-.03.235l196.78,21.463.02-.235.03-.235-196.78-21.463-.02.235Zm196.77,21.463l-.22.07l68.6,221.215.22-.07.23-.07-68.6-221.215-.23.07Zm68.6,221.215l.06-.228-340.57-93.116-.06.228-.06.228l340.57,93.115.06-.227ZM1125.97,381.81l-.23.003v.407l.24-.003.23-.003v-.407l-.24.003Zm.01.407l.22-.07-71.66-231.081-.22.07-.23.07l71.66,231.081.23-.07Zm-71.66-231.081l-.2.131.23.338.19-.131.2-.131-.23-.338-.19.131Zm.22.338l.18.153l228.13-269.474-.18-.153-.18-.152-228.13,269.473.18.153ZM1282.67,-118l-.23.07l68.61,221.216.22-.07.23-.07-68.6-221.216-.23.07Z" fill="#112431" fill-opacity="0.2"/></g><g opacity="0.7"><g style="mix-blend-mode:soft-light" opacity="0.7"><path d="M-86.7735,-134.384h-49.1485v49.1482m49.1485-49.1482v49.1482m0-49.1482h49.1486m-49.1486,49.1482h-49.1485m49.1485,0v49.1486m0-49.1486h49.1486m-98.2971,0v49.1486m49.1485,0h-49.1485m49.1485,0v49.1487m0-49.1487h49.1486m-98.2971,0v49.1487m49.1485,0h-49.1485m49.1485,0v49.1486m0-49.1486h49.1486m-98.2971,0v49.1486m49.1485,0h-49.1485m49.1485,0v49.1489m0-49.1489h49.1486m-98.2971,0v49.1489m49.1485,0h-49.1485m49.1485,0v49.148m0-49.148h49.1486m-98.2971,0v49.148m49.1485,0h-49.1485m49.1485,0v49.149m0-49.149h49.1486m-98.2971,0v49.149m49.1485,0h-49.1485m49.1485,0v49.149m0-49.149h49.1486m-98.2971,0v49.149m49.1485,0h-49.1485m49.1485,0v49.148m0-49.148h49.1486m-98.2971,0v49.148m49.1485,0h-49.1485m49.1485,0v49.149m0-49.149h49.1486m-98.2971,0v49.149m49.1485,0h-49.1485m49.1485,0v49.149m0-49.149h49.1486m-98.2971,0v49.149m49.1485,0h-49.1485m49.1485,0v49.148m0-49.148h49.1486m-98.2971,0v49.148m49.1485,0h-49.1485m49.1485,0v49.149m0-49.149h49.1486m-98.2971,0v49.149m49.1485,0h-49.1485m49.1485,0v49.148m0-49.148h49.1486m-98.2971,0v49.148m49.1485,0h-49.1485m49.1485,0v49.149m0-49.149h49.1486m-98.2971,0v49.149m49.1485,0h-49.1485m49.1485,0v49.149m0-49.149h49.1486m-98.2971,0v49.149m49.1485,0h-49.1485m49.1485,0v49.148m0-49.148h49.1486m-98.2971,0v49.148m49.1485,0h-49.1485m49.1485,0v49.149m0-49.149h49.1486m-98.2971,0v49.149m49.1485,0h-49.1485m49.1485,0v49.149m0-49.149h49.1486m-98.2971,0v49.149m49.1485,0h-49.1485m49.1485,0v49.148m0-49.148h49.1486m-98.2971,0v49.148h49.1485m0,0h49.1486m0-982.972v49.1482m0-49.1482h49.1487m-49.1487,49.1482v49.1486m0-49.1486h49.1487m-49.1487,49.1486v49.1487m0-49.1487h49.1487M-37.6249,13.0615v49.1486m0-49.1486h49.1487M-37.6249,62.2101v49.1489m0-49.1489h49.1487M-37.6249,111.359v49.148m0-49.148h49.1487m-49.1487,49.148v49.149m0-49.149h49.1487m-49.1487,49.149v49.149m0-49.149h49.1487m-49.1487,49.149v49.148m0-49.148h49.1487m-49.1487,49.148v49.149m0-49.149h49.1487m-49.1487,49.149v49.149m0-49.149h49.1487m-49.1487,49.149v49.148m0-49.148h49.1487m-49.1487,49.148v49.149m0-49.149h49.1487m-49.1487,49.149v49.148m0-49.148h49.1487m-49.1487,49.148v49.149m0-49.149h49.1487m-49.1487,49.149v49.149m0-49.149h49.1487m-49.1487,49.149v49.148m0-49.148h49.1487m-49.1487,49.148v49.149m0-49.149h49.1487m-49.1487,49.149v49.149m0-49.149h49.1487M-37.6249,799.44v49.148m0-49.148h49.1487m-49.1487,49.148h49.1487m0-982.972v49.1482m0-49.1482h49.1486M11.5238,-85.2358v49.1486m0-49.1486h49.1486M11.5238,-36.0872v49.1487m0-49.1487h49.1486M11.5238,13.0615v49.1486m0-49.1486h49.1486M11.5238,62.2101v49.1489m0-49.1489h49.1486M11.5238,111.359v49.148m0-49.148h49.1486M11.5238,160.507v49.149m0-49.149h49.1486M11.5238,209.656v49.149m0-49.149h49.1486M11.5238,258.805v49.148m0-49.148h49.1486M11.5238,307.953v49.149m0-49.149h49.1486M11.5238,357.102v49.149m0-49.149h49.1486M11.5238,406.251v49.148m0-49.148h49.1486M11.5238,455.399v49.149m0-49.149h49.1486M11.5238,504.548v49.148m0-49.148h49.1486M11.5238,553.696v49.149m0-49.149h49.1486M11.5238,602.845v49.149m0-49.149h49.1486M11.5238,651.994v49.148m0-49.148h49.1486M11.5238,701.142v49.149m0-49.149h49.1486M11.5238,750.291v49.149m0-49.149h49.1486M11.5238,799.44v49.148m0-49.148h49.1486M11.5238,848.588h49.1486m0-982.972v49.1482m0-49.1482h49.1486M60.6724,-85.2358v49.1486m0-49.1486h49.1486M60.6724,-36.0872v49.1487m0-49.1487h49.1486M60.6724,13.0615v49.1486m0-49.1486h49.1486M60.6724,62.2101v49.1489m0-49.1489h49.1486M60.6724,111.359v49.148m0-49.148h49.1486M60.6724,160.507v49.149m0-49.149h49.1486M60.6724,209.656v49.149m0-49.149h49.1486M60.6724,258.805v49.148m0-49.148h49.1486M60.6724,307.953v49.149m0-49.149h49.1486M60.6724,357.102v49.149m0-49.149h49.1486M60.6724,406.251v49.148m0-49.148h49.1486M60.6724,455.399v49.149m0-49.149h49.1486M60.6724,504.548v49.148m0-49.148h49.1486M60.6724,553.696v49.149m0-49.149h49.1486M60.6724,602.845v49.149m0-49.149h49.1486M60.6724,651.994v49.148m0-49.148h49.1486M60.6724,701.142v49.149m0-49.149h49.1486M60.6724,750.291v49.149m0-49.149h49.1486M60.6724,799.44v49.148m0-49.148h49.1486M60.6724,848.588h49.1486m0-982.972v49.1482m0-49.1482h49.149m-49.149,49.1482v49.1486m0-49.1486h49.149m-49.149,49.1486v49.1487m0-49.1487h49.149M109.821,13.0615v49.1486m0-49.1486h49.149M109.821,62.2101v49.1489m0-49.1489h49.149M109.821,111.359v49.148m0-49.148h49.149m-49.149,49.148v49.149m0-49.149h49.149m-49.149,49.149v49.149m0-49.149h49.149m-49.149,49.149v49.148m0-49.148h49.149m-49.149,49.148v49.149m0-49.149h49.149m-49.149,49.149v49.149m0-49.149h49.149m-49.149,49.149v49.148m0-49.148h49.149m-49.149,49.148v49.149m0-49.149h49.149m-49.149,49.149v49.148m0-49.148h49.149m-49.149,49.148v49.149m0-49.149h49.149m-49.149,49.149v49.149m0-49.149h49.149m-49.149,49.149v49.148m0-49.148h49.149m-49.149,49.148v49.149m0-49.149h49.149m-49.149,49.149v49.149m0-49.149h49.149M109.821,799.44v49.148m0-49.148h49.149m-49.149,49.148h49.149m0-982.972v49.1482m0-49.1482h49.148M158.97,-85.2358v49.1486m0-49.1486h49.148M158.97,-36.0872v49.1487m0-49.1487h49.148M158.97,13.0615v49.1486m0-49.1486h49.148M158.97,62.2101v49.1489m0-49.1489h49.148M158.97,111.359v49.148m0-49.148h49.148M158.97,160.507v49.149m0-49.149h49.148M158.97,209.656v49.149m0-49.149h49.148M158.97,258.805v49.148m0-49.148h49.148M158.97,307.953v49.149m0-49.149h49.148M158.97,357.102v49.149m0-49.149h49.148M158.97,406.251v49.148m0-49.148h49.148M158.97,455.399v49.149m0-49.149h49.148M158.97,504.548v49.148m0-49.148h49.148M158.97,553.696v49.149m0-49.149h49.148M158.97,602.845v49.149m0-49.149h49.148M158.97,651.994v49.148m0-49.148h49.148M158.97,701.142v49.149m0-49.149h49.148M158.97,750.291v49.149m0-49.149h49.148M158.97,799.44v49.148m0-49.148h49.148M158.97,848.588h49.148m0-982.972v49.1482m0-49.1482h49.149m-49.149,49.1482v49.1486m0-49.1486h49.149m-49.149,49.1486v49.1487m0-49.1487h49.149M208.118,13.0615v49.1486m0-49.1486h49.149M208.118,62.2101v49.1489m0-49.1489h49.149M208.118,111.359v49.148m0-49.148h49.149m-49.149,49.148v49.149m0-49.149h49.149m-49.149,49.149v49.149m0-49.149h49.149m-49.149,49.149v49.148m0-49.148h49.149m-49.149,49.148v49.149m0-49.149h49.149m-49.149,49.149v49.149m0-49.149h49.149m-49.149,49.149v49.148m0-49.148h49.149m-49.149,49.148v49.149m0-49.149h49.149m-49.149,49.149v49.148m0-49.148h49.149m-49.149,49.148v49.149m0-49.149h49.149m-49.149,49.149v49.149m0-49.149h49.149m-49.149,49.149v49.148m0-49.148h49.149m-49.149,49.148v49.149m0-49.149h49.149m-49.149,49.149v49.149m0-49.149h49.149M208.118,799.44v49.148m0-49.148h49.149m-49.149,49.148h49.149m0-982.972v49.1482m0-49.1482h49.149m-49.149,49.1482v49.1486m0-49.1486h49.149m-49.149,49.1486v49.1487m0-49.1487h49.149M257.267,13.0615v49.1486m0-49.1486h49.149M257.267,62.2101v49.1489m0-49.1489h49.149M257.267,111.359v49.148m0-49.148h49.149m-49.149,49.148v49.149m0-49.149h49.149m-49.149,49.149v49.149m0-49.149h49.149m-49.149,49.149v49.148m0-49.148h49.149m-49.149,49.148v49.149m0-49.149h49.149m-49.149,49.149v49.149m0-49.149h49.149m-49.149,49.149v49.148m0-49.148h49.149m-49.149,49.148v49.149m0-49.149h49.149m-49.149,49.149v49.148m0-49.148h49.149m-49.149,49.148v49.149m0-49.149h49.149m-49.149,49.149v49.149m0-49.149h49.149m-49.149,49.149v49.148m0-49.148h49.149m-49.149,49.148v49.149m0-49.149h49.149m-49.149,49.149v49.149m0-49.149h49.149M257.267,799.44v49.148m0-49.148h49.149m-49.149,49.148h49.149m0-982.972v49.1482m0-49.1482h49.148m-49.148,49.1482v49.1486m0-49.1486h49.148m-49.148,49.1486v49.1487m0-49.1487h49.148M306.416,13.0615v49.1486m0-49.1486h49.148M306.416,62.2101v49.1489m0-49.1489h49.148M306.416,111.359v49.148m0-49.148h49.148m-49.148,49.148v49.149m0-49.149h49.148m-49.148,49.149v49.149m0-49.149h49.148m-49.148,49.149v49.148m0-49.148h49.148m-49.148,49.148v49.149m0-49.149h49.148m-49.148,49.149v49.149m0-49.149h49.148m-49.148,49.149v49.148m0-49.148h49.148m-49.148,49.148v49.149m0-49.149h49.148m-49.148,49.149v49.148m0-49.148h49.148m-49.148,49.148v49.149m0-49.149h49.148m-49.148,49.149v49.149m0-49.149h49.148m-49.148,49.149v49.148m0-49.148h49.148m-49.148,49.148v49.149m0-49.149h49.148m-49.148,49.149v49.149m0-49.149h49.148M306.416,799.44v49.148m0-49.148h49.148m-49.148,49.148h49.148m0-982.972v49.1482m0-49.1482h49.149m-49.149,49.1482v49.1486m0-49.1486h49.149m-49.149,49.1486v49.1487m0-49.1487h49.149M355.564,13.0615v49.1486m0-49.1486h49.149M355.564,62.2101v49.1489m0-49.1489h49.149M355.564,111.359v49.148m0-49.148h49.149m-49.149,49.148v49.149m0-49.149h49.149m-49.149,49.149v49.149m0-49.149h49.149m-49.149,49.149v49.148m0-49.148h49.149m-49.149,49.148v49.149m0-49.149h49.149m-49.149,49.149v49.149m0-49.149h49.149m-49.149,49.149v49.148m0-49.148h49.149m-49.149,49.148v49.149m0-49.149h49.149m-49.149,49.149v49.148m0-49.148h49.149m-49.149,49.148v49.149m0-49.149h49.149m-49.149,49.149v49.149m0-49.149h49.149m-49.149,49.149v49.148m0-49.148h49.149m-49.149,49.148v49.149m0-49.149h49.149m-49.149,49.149v49.149m0-49.149h49.149M355.564,799.44v49.148m0-49.148h49.149m-49.149,49.148h49.149m0-982.972v49.1482m0-49.1482h49.148m-49.148,49.1482v49.1486m0-49.1486h49.148m-49.148,49.1486v49.1487m0-49.1487h49.148M404.713,13.0615v49.1486m0-49.1486h49.148M404.713,62.2101v49.1489m0-49.1489h49.148M404.713,111.359v49.148m0-49.148h49.148m-49.148,49.148v49.149m0-49.149h49.148m-49.148,49.149v49.149m0-49.149h49.148m-49.148,49.149v49.148m0-49.148h49.148m-49.148,49.148v49.149m0-49.149h49.148m-49.148,49.149v49.149m0-49.149h49.148m-49.148,49.149v49.148m0-49.148h49.148m-49.148,49.148v49.149m0-49.149h49.148m-49.148,49.149v49.148m0-49.148h49.148m-49.148,49.148v49.149m0-49.149h49.148m-49.148,49.149v49.149m0-49.149h49.148m-49.148,49.149v49.148m0-49.148h49.148m-49.148,49.148v49.149m0-49.149h49.148m-49.148,49.149v49.149m0-49.149h49.148M404.713,799.44v49.148m0-49.148h49.148m-49.148,49.148h49.148m0-982.972v49.1482m0-49.1482h49.149m-49.149,49.1482v49.1486m0-49.1486h49.149m-49.149,49.1486v49.1487m0-49.1487h49.149M453.861,13.0615v49.1486m0-49.1486h49.149M453.861,62.2101v49.1489m0-49.1489h49.149M453.861,111.359v49.148m0-49.148h49.149m-49.149,49.148v49.149m0-49.149h49.149m-49.149,49.149v49.149m0-49.149h49.149m-49.149,49.149v49.148m0-49.148h49.149m-49.149,49.148v49.149m0-49.149h49.149m-49.149,49.149v49.149m0-49.149h49.149m-49.149,49.149v49.148m0-49.148h49.149m-49.149,49.148v49.149m0-49.149h49.149m-49.149,49.149v49.148m0-49.148h49.149m-49.149,49.148v49.149m0-49.149h49.149m-49.149,49.149v49.149m0-49.149h49.149m-49.149,49.149v49.148m0-49.148h49.149m-49.149,49.148v49.149m0-49.149h49.149m-49.149,49.149v49.149m0-49.149h49.149M453.861,799.44v49.148m0-49.148h49.149m-49.149,49.148h49.149m0-982.972v49.1482m0-49.1482h49.149M503.01,-85.2358v49.1486m0-49.1486h49.149M503.01,-36.0872v49.1487m0-49.1487h49.149M503.01,13.0615v49.1486m0-49.1486h49.149M503.01,62.2101v49.1489m0-49.1489h49.149M503.01,111.359v49.148m0-49.148h49.149M503.01,160.507v49.149m0-49.149h49.149M503.01,209.656v49.149m0-49.149h49.149M503.01,258.805v49.148m0-49.148h49.149M503.01,307.953v49.149m0-49.149h49.149M503.01,357.102v49.149m0-49.149h49.149M503.01,406.251v49.148m0-49.148h49.149M503.01,455.399v49.149m0-49.149h49.149M503.01,504.548v49.148m0-49.148h49.149M503.01,553.696v49.149m0-49.149h49.149M503.01,602.845v49.149m0-49.149h49.149M503.01,651.994v49.148m0-49.148h49.149M503.01,701.142v49.149m0-49.149h49.149M503.01,750.291v49.149m0-49.149h49.149M503.01,799.44v49.148m0-49.148h49.149M503.01,848.588h49.149m0-982.972v49.1482m0-49.1482h49.148m-49.148,49.1482v49.1486m0-49.1486h49.148m-49.148,49.1486v49.1487m0-49.1487h49.148M552.159,13.0615v49.1486m0-49.1486h49.148M552.159,62.2101v49.1489m0-49.1489h49.148M552.159,111.359v49.148m0-49.148h49.148m-49.148,49.148v49.149m0-49.149h49.148m-49.148,49.149v49.149m0-49.149h49.148m-49.148,49.149v49.148m0-49.148h49.148m-49.148,49.148v49.149m0-49.149h49.148m-49.148,49.149v49.149m0-49.149h49.148m-49.148,49.149v49.148m0-49.148h49.148m-49.148,49.148v49.149m0-49.149h49.148m-49.148,49.149v49.148m0-49.148h49.148m-49.148,49.148v49.149m0-49.149h49.148m-49.148,49.149v49.149m0-49.149h49.148m-49.148,49.149v49.148m0-49.148h49.148m-49.148,49.148v49.149m0-49.149h49.148m-49.148,49.149v49.149m0-49.149h49.148M552.159,799.44v49.148m0-49.148h49.148m-49.148,49.148h49.148m0-982.972v49.1482m0-49.1482h49.149m-49.149,49.1482v49.1486m0-49.1486h49.149m-49.149,49.1486v49.1487m0-49.1487h49.149M601.307,13.0615v49.1486m0-49.1486h49.149M601.307,62.2101v49.1489m0-49.1489h49.149M601.307,111.359v49.148m0-49.148h49.149m-49.149,49.148v49.149m0-49.149h49.149m-49.149,49.149v49.149m0-49.149h49.149m-49.149,49.149v49.148m0-49.148h49.149m-49.149,49.148v49.149m0-49.149h49.149m-49.149,49.149v49.149m0-49.149h49.149m-49.149,49.149v49.148m0-49.148h49.149m-49.149,49.148v49.149m0-49.149h49.149m-49.149,49.149v49.148m0-49.148h49.149m-49.149,49.148v49.149m0-49.149h49.149m-49.149,49.149v49.149m0-49.149h49.149m-49.149,49.149v49.148m0-49.148h49.149m-49.149,49.148v49.149m0-49.149h49.149m-49.149,49.149v49.149m0-49.149h49.149M601.307,799.44v49.148m0-49.148h49.149m-49.149,49.148h49.149m0-982.972v49.1482m0-49.1482h49.149m-49.149,49.1482v49.1486m0-49.1486h49.149m-49.149,49.1486v49.1487m0-49.1487h49.149M650.456,13.0615v49.1486m0-49.1486h49.149M650.456,62.2101v49.1489m0-49.1489h49.149M650.456,111.359v49.148m0-49.148h49.149m-49.149,49.148v49.149m0-49.149h49.149m-49.149,49.149v49.149m0-49.149h49.149m-49.149,49.149v49.148m0-49.148h49.149m-49.149,49.148v49.149m0-49.149h49.149m-49.149,49.149v49.149m0-49.149h49.149m-49.149,49.149v49.148m0-49.148h49.149m-49.149,49.148v49.149m0-49.149h49.149m-49.149,49.149v49.148m0-49.148h49.149m-49.149,49.148v49.149m0-49.149h49.149m-49.149,49.149v49.149m0-49.149h49.149m-49.149,49.149v49.148m0-49.148h49.149m-49.149,49.148v49.149m0-49.149h49.149m-49.149,49.149v49.149m0-49.149h49.149M650.456,799.44v49.148m0-49.148h49.149m-49.149,49.148h49.149m0-982.972v49.1482m0-49.1482h49.148m-49.148,49.1482v49.1486m0-49.1486h49.148m-49.148,49.1486v49.1487m0-49.1487h49.148M699.605,13.0615v49.1486m0-49.1486h49.148M699.605,62.2101v49.1489m0-49.1489h49.148M699.605,111.359v49.148m0-49.148h49.148m-49.148,49.148v49.149m0-49.149h49.148m-49.148,49.149v49.149m0-49.149h49.148m-49.148,49.149v49.148m0-49.148h49.148m-49.148,49.148v49.149m0-49.149h49.148m-49.148,49.149v49.149m0-49.149h49.148m-49.148,49.149v49.148m0-49.148h49.148m-49.148,49.148v49.149m0-49.149h49.148m-49.148,49.149v49.148m0-49.148h49.148m-49.148,49.148v49.149m0-49.149h49.148m-49.148,49.149v49.149m0-49.149h49.148m-49.148,49.149v49.148m0-49.148h49.148m-49.148,49.148v49.149m0-49.149h49.148m-49.148,49.149v49.149m0-49.149h49.148M699.605,799.44v49.148m0-49.148h49.148m-49.148,49.148h49.148m0-982.972v49.1482m0-49.1482h49.149m-49.149,49.1482v49.1486m0-49.1486h49.149m-49.149,49.1486v49.1487m0-49.1487h49.149M748.753,13.0615v49.1486m0-49.1486h49.149M748.753,62.2101v49.1489m0-49.1489h49.149M748.753,111.359v49.148m0-49.148h49.149m-49.149,49.148v49.149m0-49.149h49.149m-49.149,49.149v49.149m0-49.149h49.149m-49.149,49.149v49.148m0-49.148h49.149m-49.149,49.148v49.149m0-49.149h49.149m-49.149,49.149v49.149m0-49.149h49.149m-49.149,49.149v49.148m0-49.148h49.149m-49.149,49.148v49.149m0-49.149h49.149m-49.149,49.149v49.148m0-49.148h49.149m-49.149,49.148v49.149m0-49.149h49.149m-49.149,49.149v49.149m0-49.149h49.149m-49.149,49.149v49.148m0-49.148h49.149m-49.149,49.148v49.149m0-49.149h49.149m-49.149,49.149v49.149m0-49.149h49.149M748.753,799.44v49.148m0-49.148h49.149m-49.149,49.148h49.149m0-982.972v49.1482m0-49.1482h49.149m-49.149,49.1482v49.1486m0-49.1486h49.149m-49.149,49.1486v49.1487m0-49.1487h49.149M797.902,13.0615v49.1486m0-49.1486h49.149M797.902,62.2101v49.1489m0-49.1489h49.149M797.902,111.359v49.148m0-49.148h49.149m-49.149,49.148v49.149m0-49.149h49.149m-49.149,49.149v49.149m0-49.149h49.149m-49.149,49.149v49.148m0-49.148h49.149m-49.149,49.148v49.149m0-49.149h49.149m-49.149,49.149v49.149m0-49.149h49.149m-49.149,49.149v49.148m0-49.148h49.149m-49.149,49.148v49.149m0-49.149h49.149m-49.149,49.149v49.148m0-49.148h49.149m-49.149,49.148v49.149m0-49.149h49.149m-49.149,49.149v49.149m0-49.149h49.149m-49.149,49.149v49.148m0-49.148h49.149m-49.149,49.148v49.149m0-49.149h49.149m-49.149,49.149v49.149m0-49.149h49.149M797.902,799.44v49.148m0-49.148h49.149m-49.149,49.148h49.149m0-982.972v49.1482m0-49.1482h49.148m-49.148,49.1482v49.1486m0-49.1486h49.148m-49.148,49.1486v49.1487m0-49.1487h49.148M847.051,13.0615v49.1486m0-49.1486h49.148M847.051,62.2101v49.1489m0-49.1489h49.148M847.051,111.359v49.148m0-49.148h49.148m-49.148,49.148v49.149m0-49.149h49.148m-49.148,49.149v49.149m0-49.149h49.148m-49.148,49.149v49.148m0-49.148h49.148m-49.148,49.148v49.149m0-49.149h49.148m-49.148,49.149v49.149m0-49.149h49.148m-49.148,49.149v49.148m0-49.148h49.148m-49.148,49.148v49.149m0-49.149h49.148m-49.148,49.149v49.148m0-49.148h49.148m-49.148,49.148v49.149m0-49.149h49.148m-49.148,49.149v49.149m0-49.149h49.148m-49.148,49.149v49.148m0-49.148h49.148m-49.148,49.148v49.149m0-49.149h49.148m-49.148,49.149v49.149m0-49.149h49.148M847.051,799.44v49.148m0-49.148h49.148m-49.148,49.148h49.148m0-982.972v49.1482m0-49.1482h49.149m-49.149,49.1482v49.1486m0-49.1486h49.149m-49.149,49.1486v49.1487m0-49.1487h49.149M896.199,13.0615v49.1486m0-49.1486h49.149M896.199,62.2101v49.1489m0-49.1489h49.149M896.199,111.359v49.148m0-49.148h49.149m-49.149,49.148v49.149m0-49.149h49.149m-49.149,49.149v49.149m0-49.149h49.149m-49.149,49.149v49.148m0-49.148h49.149m-49.149,49.148v49.149m0-49.149h49.149m-49.149,49.149v49.149m0-49.149h49.149m-49.149,49.149v49.148m0-49.148h49.149m-49.149,49.148v49.149m0-49.149h49.149m-49.149,49.149v49.148m0-49.148h49.149m-49.149,49.148v49.149m0-49.149h49.149m-49.149,49.149v49.149m0-49.149h49.149m-49.149,49.149v49.148m0-49.148h49.149m-49.149,49.148v49.149m0-49.149h49.149m-49.149,49.149v49.149m0-49.149h49.149M896.199,799.44v49.148m0-49.148h49.149m-49.149,49.148h49.149m0-982.972v49.1482m0-49.1482h49.148m-49.148,49.1482v49.1486m0-49.1486h49.148m-49.148,49.1486v49.1487m0-49.1487h49.148M945.348,13.0615v49.1486m0-49.1486h49.148M945.348,62.2101v49.1489m0-49.1489h49.148M945.348,111.359v49.148m0-49.148h49.148m-49.148,49.148v49.149m0-49.149h49.148m-49.148,49.149v49.149m0-49.149h49.148m-49.148,49.149v49.148m0-49.148h49.148m-49.148,49.148v49.149m0-49.149h49.148m-49.148,49.149v49.149m0-49.149h49.148m-49.148,49.149v49.148m0-49.148h49.148m-49.148,49.148v49.149m0-49.149h49.148m-49.148,49.149v49.148m0-49.148h49.148m-49.148,49.148v49.149m0-49.149h49.148m-49.148,49.149v49.149m0-49.149h49.148m-49.148,49.149v49.148m0-49.148h49.148m-49.148,49.148v49.149m0-49.149h49.148m-49.148,49.149v49.149m0-49.149h49.148M945.348,799.44v49.148m0-49.148h49.148m-49.148,49.148h49.148m0-982.972v49.1482m0-49.1482h49.154m-49.154,49.1482v49.1486m0-49.1486h49.154m-49.154,49.1486v49.1487m0-49.1487h49.154M994.496,13.0615v49.1486m0-49.1486h49.154M994.496,62.2101v49.1489m0-49.1489h49.154M994.496,111.359v49.148m0-49.148h49.154m-49.154,49.148v49.149m0-49.149h49.154m-49.154,49.149v49.149m0-49.149h49.154m-49.154,49.149v49.148m0-49.148h49.154m-49.154,49.148v49.149m0-49.149h49.154m-49.154,49.149v49.149m0-49.149h49.154m-49.154,49.149v49.148m0-49.148h49.154m-49.154,49.148v49.149m0-49.149h49.154m-49.154,49.149v49.148m0-49.148h49.154m-49.154,49.148v49.149m0-49.149h49.154m-49.154,49.149v49.149m0-49.149h49.154m-49.154,49.149v49.148m0-49.148h49.154m-49.154,49.148v49.149m0-49.149h49.154m-49.154,49.149v49.149m0-49.149h49.154M994.496,799.44v49.148m0-49.148h49.154m-49.154,49.148h49.154m0-982.972v49.1482m0-49.1482h49.14m-49.14,49.1482v49.1486m0-49.1486h49.14m-49.14,49.1486v49.1487m0-49.1487h49.14m-49.14,49.1487v49.1486m0-49.1486h49.14m-49.14,49.1486v49.1489m0-49.1489h49.14m-49.14,49.1489v49.148m0-49.148h49.14m-49.14,49.148v49.149m0-49.149h49.14m-49.14,49.149v49.149m0-49.149h49.14m-49.14,49.149v49.148m0-49.148h49.14m-49.14,49.148v49.149m0-49.149h49.14m-49.14,49.149v49.149m0-49.149h49.14m-49.14,49.149v49.148m0-49.148h49.14m-49.14,49.148v49.149m0-49.149h49.14m-49.14,49.149v49.148m0-49.148h49.14m-49.14,49.148v49.149m0-49.149h49.14m-49.14,49.149v49.149m0-49.149h49.14m-49.14,49.149v49.148m0-49.148h49.14m-49.14,49.148v49.149m0-49.149h49.14m-49.14,49.149v49.149m0-49.149h49.14m-49.14,49.149v49.148m0-49.148h49.14m-49.14,49.148h49.14m0-982.972v49.1482m0-49.1482h49.15m-49.15,49.1482v49.1486m0-49.1486h49.15m-49.15,49.1486v49.1487m0-49.1487h49.15m-49.15,49.1487v49.1486m0-49.1486h49.15m-49.15,49.1486v49.1489m0-49.1489h49.15m-49.15,49.1489v49.148m0-49.148h49.15m-49.15,49.148v49.149m0-49.149h49.15m-49.15,49.149v49.149m0-49.149h49.15m-49.15,49.149v49.148m0-49.148h49.15m-49.15,49.148v49.149m0-49.149h49.15m-49.15,49.149v49.149m0-49.149h49.15m-49.15,49.149v49.148m0-49.148h49.15m-49.15,49.148v49.149m0-49.149h49.15m-49.15,49.149v49.148m0-49.148h49.15m-49.15,49.148v49.149m0-49.149h49.15m-49.15,49.149v49.149m0-49.149h49.15m-49.15,49.149v49.148m0-49.148h49.15m-49.15,49.148v49.149m0-49.149h49.15m-49.15,49.149v49.149m0-49.149h49.15m-49.15,49.149v49.148m0-49.148h49.15m-49.15,49.148h49.15m0-982.972v49.1482m0-49.1482h49.15m-49.15,49.1482v49.1486m0-49.1486h49.15m-49.15,49.1486v49.1487m0-49.1487h49.15m-49.15,49.1487v49.1486m0-49.1486h49.15m-49.15,49.1486v49.1489m0-49.1489h49.15m-49.15,49.1489v49.148m0-49.148h49.15m-49.15,49.148v49.149m0-49.149h49.15m-49.15,49.149v49.149m0-49.149h49.15m-49.15,49.149v49.148m0-49.148h49.15m-49.15,49.148v49.149m0-49.149h49.15m-49.15,49.149v49.149m0-49.149h49.15m-49.15,49.149v49.148m0-49.148h49.15m-49.15,49.148v49.149m0-49.149h49.15m-49.15,49.149v49.148m0-49.148h49.15m-49.15,49.148v49.149m0-49.149h49.15m-49.15,49.149v49.149m0-49.149h49.15m-49.15,49.149v49.148m0-49.148h49.15m-49.15,49.148v49.149m0-49.149h49.15m-49.15,49.149v49.149m0-49.149h49.15m-49.15,49.149v49.148m0-49.148h49.15m-49.15,49.148h49.15m0-982.972v49.1482m0-49.1482h49.15m-49.15,49.1482v49.1486m0-49.1486h49.15m-49.15,49.1486v49.1487m0-49.1487h49.15m-49.15,49.1487v49.1486m0-49.1486h49.15m-49.15,49.1486v49.1489m0-49.1489h49.15m-49.15,49.1489v49.148m0-49.148h49.15m-49.15,49.148v49.149m0-49.149h49.15m-49.15,49.149v49.149m0-49.149h49.15m-49.15,49.149v49.148m0-49.148h49.15m-49.15,49.148v49.149m0-49.149h49.15m-49.15,49.149v49.149m0-49.149h49.15m-49.15,49.149v49.148m0-49.148h49.15m-49.15,49.148v49.149m0-49.149h49.15m-49.15,49.149v49.148m0-49.148h49.15m-49.15,49.148v49.149m0-49.149h49.15m-49.15,49.149v49.149m0-49.149h49.15m-49.15,49.149v49.148m0-49.148h49.15m-49.15,49.148v49.149m0-49.149h49.15m-49.15,49.149v49.149m0-49.149h49.15m-49.15,49.149v49.148m0-49.148h49.15m-49.15,49.148h49.15m0-982.972v49.1482m0-49.1482h49.15m-49.15,49.1482v49.1486m0-49.1486h49.15m-49.15,49.1486v49.1487m0-49.1487h49.15m-49.15,49.1487v49.1486m0-49.1486h49.15m-49.15,49.1486v49.1489m0-49.1489h49.15m-49.15,49.1489v49.148m0-49.148h49.15m-49.15,49.148v49.149m0-49.149h49.15m-49.15,49.149v49.149m0-49.149h49.15m-49.15,49.149v49.148m0-49.148h49.15m-49.15,49.148v49.149m0-49.149h49.15m-49.15,49.149v49.149m0-49.149h49.15m-49.15,49.149v49.148m0-49.148h49.15m-49.15,49.148v49.149m0-49.149h49.15m-49.15,49.149v49.148m0-49.148h49.15m-49.15,49.148v49.149m0-49.149h49.15m-49.15,49.149v49.149m0-49.149h49.15m-49.15,49.149v49.148m0-49.148h49.15m-49.15,49.148v49.149m0-49.149h49.15m-49.15,49.149v49.149m0-49.149h49.15m-49.15,49.149v49.148m0-49.148h49.15m-49.15,49.148h49.15m0-982.972v49.1482m0-49.1482h49.15m-49.15,49.1482v49.1486m0-49.1486h49.15m-49.15,49.1486v49.1487m0-49.1487h49.15m-49.15,49.1487v49.1486m0-49.1486h49.15m-49.15,49.1486v49.1489m0-49.1489h49.15m-49.15,49.1489v49.148m0-49.148h49.15m-49.15,49.148v49.149m0-49.149h49.15m-49.15,49.149v49.149m0-49.149h49.15m-49.15,49.149v49.148m0-49.148h49.15m-49.15,49.148v49.149m0-49.149h49.15m-49.15,49.149v49.149m0-49.149h49.15m-49.15,49.149v49.148m0-49.148h49.15m-49.15,49.148v49.149m0-49.149h49.15m-49.15,49.149v49.148m0-49.148h49.15m-49.15,49.148v49.149m0-49.149h49.15m-49.15,49.149v49.149m0-49.149h49.15m-49.15,49.149v49.148m0-49.148h49.15m-49.15,49.148v49.149m0-49.149h49.15m-49.15,49.149v49.149m0-49.149h49.15m-49.15,49.149v49.148m0-49.148h49.15m-49.15,49.148h49.15m0-982.972v49.1482m0-49.1482h49.15m-49.15,49.1482v49.1486m0-49.1486h49.15m-49.15,49.1486v49.1487m0-49.1487h49.15m-49.15,49.1487v49.1486m0-49.1486h49.15m-49.15,49.1486v49.1489m0-49.1489h49.15m-49.15,49.1489v49.148m0-49.148h49.15m-49.15,49.148v49.149m0-49.149h49.15m-49.15,49.149v49.149m0-49.149h49.15m-49.15,49.149v49.148m0-49.148h49.15m-49.15,49.148v49.149m0-49.149h49.15m-49.15,49.149v49.149m0-49.149h49.15m-49.15,49.149v49.148m0-49.148h49.15m-49.15,49.148v49.149m0-49.149h49.15m-49.15,49.149v49.148m0-49.148h49.15m-49.15,49.148v49.149m0-49.149h49.15m-49.15,49.149v49.149m0-49.149h49.15m-49.15,49.149v49.148m0-49.148h49.15m-49.15,49.148v49.149m0-49.149h49.15m-49.15,49.149v49.149m0-49.149h49.15m-49.15,49.149v49.148m0-49.148h49.15m-49.15,49.148h49.15m0-982.972v49.1482m0-49.1482h49.14m-49.14,49.1482v49.1486m0-49.1486h49.14m-49.14,49.1486v49.1487m0-49.1487h49.14m-49.14,49.1487v49.1486m0-49.1486h49.14m-49.14,49.1486v49.1489m0-49.1489h49.14m-49.14,49.1489v49.148m0-49.148h49.14m-49.14,49.148v49.149m0-49.149h49.14m-49.14,49.149v49.149m0-49.149h49.14m-49.14,49.149v49.148m0-49.148h49.14m-49.14,49.148v49.149m0-49.149h49.14m-49.14,49.149v49.149m0-49.149h49.14m-49.14,49.149v49.148m0-49.148h49.14m-49.14,49.148v49.149m0-49.149h49.14m-49.14,49.149v49.148m0-49.148h49.14m-49.14,49.148v49.149m0-49.149h49.14m-49.14,49.149v49.149m0-49.149h49.14m-49.14,49.149v49.148m0-49.148h49.14m-49.14,49.148v49.149m0-49.149h49.14m-49.14,49.149v49.149m0-49.149h49.14m-49.14,49.149v49.148m0-49.148h49.14m-49.14,49.148h49.14m0-982.972v49.1482m0-49.1482h49.15m-49.15,49.1482v49.1486m0-49.1486h49.15m-49.15,49.1486v49.1487m0-49.1487h49.15m-49.15,49.1487v49.1486m0-49.1486h49.15m-49.15,49.1486v49.1489m0-49.1489h49.15m-49.15,49.1489v49.148m0-49.148h49.15m-49.15,49.148v49.149m0-49.149h49.15m-49.15,49.149v49.149m0-49.149h49.15m-49.15,49.149v49.148m0-49.148h49.15m-49.15,49.148v49.149m0-49.149h49.15m-49.15,49.149v49.149m0-49.149h49.15m-49.15,49.149v49.148m0-49.148h49.15m-49.15,49.148v49.149m0-49.149h49.15m-49.15,49.149v49.148m0-49.148h49.15m-49.15,49.148v49.149m0-49.149h49.15m-49.15,49.149v49.149m0-49.149h49.15m-49.15,49.149v49.148m0-49.148h49.15m-49.15,49.148v49.149m0-49.149h49.15m-49.15,49.149v49.149m0-49.149h49.15m-49.15,49.149v49.148m0-49.148h49.15m-49.15,49.148h49.15m0-982.972v49.1482m0-49.1482h49.15m-49.15,49.1482v49.1486m0-49.1486h49.15m-49.15,49.1486v49.1487m0-49.1487h49.15m-49.15,49.1487v49.1486m0-49.1486h49.15m-49.15,49.1486v49.1489m0-49.1489h49.15m-49.15,49.1489v49.148m0-49.148h49.15m-49.15,49.148v49.149m0-49.149h49.15m-49.15,49.149v49.149m0-49.149h49.15m-49.15,49.149v49.148m0-49.148h49.15m-49.15,49.148v49.149m0-49.149h49.15m-49.15,49.149v49.149m0-49.149h49.15m-49.15,49.149v49.148m0-49.148h49.15m-49.15,49.148v49.149m0-49.149h49.15m-49.15,49.149v49.148m0-49.148h49.15m-49.15,49.148v49.149m0-49.149h49.15m-49.15,49.149v49.149m0-49.149h49.15m-49.15,49.149v49.148m0-49.148h49.15m-49.15,49.148v49.149m0-49.149h49.15m-49.15,49.149v49.149m0-49.149h49.15m-49.15,49.149v49.148m0-49.148h49.15m-49.15,49.148h49.15m0-982.972v49.1482m0-49.1482h49.15m-49.15,49.1482v49.1486m0-49.1486h49.15m-49.15,49.1486v49.1487m0-49.1487h49.15m-49.15,49.1487v49.1486m0-49.1486h49.15m-49.15,49.1486v49.1489m0-49.1489h49.15m-49.15,49.1489v49.148m0-49.148h49.15m-49.15,49.148v49.149m0-49.149h49.15m-49.15,49.149v49.149m0-49.149h49.15m-49.15,49.149v49.148m0-49.148h49.15m-49.15,49.148v49.149m0-49.149h49.15m-49.15,49.149v49.149m0-49.149h49.15m-49.15,49.149v49.148m0-49.148h49.15m-49.15,49.148v49.149m0-49.149h49.15m-49.15,49.149v49.148m0-49.148h49.15m-49.15,49.148v49.149m0-49.149h49.15m-49.15,49.149v49.149m0-49.149h49.15m-49.15,49.149v49.148m0-49.148h49.15m-49.15,49.148v49.149m0-49.149h49.15m-49.15,49.149v49.149m0-49.149h49.15m-49.15,49.149v49.148m0-49.148h49.15m-49.15,49.148h49.15m0-982.972v49.1482m0-49.1482h49.15m-49.15,49.1482v49.1486m0-49.1486h49.15m-49.15,49.1486v49.1487m0-49.1487h49.15m-49.15,49.1487v49.1486m0-49.1486h49.15m-49.15,49.1486v49.1489m0-49.1489h49.15m-49.15,49.1489v49.148m0-49.148h49.15m-49.15,49.148v49.149m0-49.149h49.15m-49.15,49.149v49.149m0-49.149h49.15m-49.15,49.149v49.148m0-49.148h49.15m-49.15,49.148v49.149m0-49.149h49.15m-49.15,49.149v49.149m0-49.149h49.15m-49.15,49.149v49.148m0-49.148h49.15m-49.15,49.148v49.149m0-49.149h49.15m-49.15,49.149v49.148m0-49.148h49.15m-49.15,49.148v49.149m0-49.149h49.15m-49.15,49.149v49.149m0-49.149h49.15m-49.15,49.149v49.148m0-49.148h49.15m-49.15,49.148v49.149m0-49.149h49.15m-49.15,49.149v49.149m0-49.149h49.15m-49.15,49.149v49.148m0-49.148h49.15m-49.15,49.148h49.15m0-982.972v49.1482m0-49.1482h49.15m-49.15,49.1482v49.1486m0-49.1486h49.15m-49.15,49.1486v49.1487m0-49.1487h49.15m-49.15,49.1487v49.1486m0-49.1486h49.15m-49.15,49.1486v49.1489m0-49.1489h49.15m-49.15,49.1489v49.148m0-49.148h49.15m-49.15,49.148v49.149m0-49.149h49.15m-49.15,49.149v49.149m0-49.149h49.15m-49.15,49.149v49.148m0-49.148h49.15m-49.15,49.148v49.149m0-49.149h49.15m-49.15,49.149v49.149m0-49.149h49.15m-49.15,49.149v49.148m0-49.148h49.15m-49.15,49.148v49.149m0-49.149h49.15m-49.15,49.149v49.148m0-49.148h49.15m-49.15,49.148v49.149m0-49.149h49.15m-49.15,49.149v49.149m0-49.149h49.15m-49.15,49.149v49.148m0-49.148h49.15m-49.15,49.148v49.149m0-49.149h49.15m-49.15,49.149v49.149m0-49.149h49.15m-49.15,49.149v49.148m0-49.148h49.15m-49.15,49.148h49.15m0-982.972v49.1482m0-49.1482h49.15m-49.15,49.1482v49.1486m0-49.1486h49.15m-49.15,49.1486v49.1487m0-49.1487h49.15m-49.15,49.1487v49.1486m0-49.1486h49.15m-49.15,49.1486v49.1489m0-49.1489h49.15m-49.15,49.1489v49.148m0-49.148h49.15m-49.15,49.148v49.149m0-49.149h49.15m-49.15,49.149v49.149m0-49.149h49.15m-49.15,49.149v49.148m0-49.148h49.15m-49.15,49.148v49.149m0-49.149h49.15m-49.15,49.149v49.149m0-49.149h49.15m-49.15,49.149v49.148m0-49.148h49.15m-49.15,49.148v49.149m0-49.149h49.15m-49.15,49.149v49.148m0-49.148h49.15m-49.15,49.148v49.149m0-49.149h49.15m-49.15,49.149v49.149m0-49.149h49.15m-49.15,49.149v49.148m0-49.148h49.15m-49.15,49.148v49.149m0-49.149h49.15m-49.15,49.149v49.149m0-49.149h49.15m-49.15,49.149v49.148m0-49.148h49.15m-49.15,49.148h49.15m0-982.972v49.1482m0-49.1482h49.14m-49.14,49.1482v49.1486m0-49.1486h49.14m-49.14,49.1486v49.1487m0-49.1487h49.14m-49.14,49.1487v49.1486m0-49.1486h49.14m-49.14,49.1486v49.1489m0-49.1489h49.14m-49.14,49.1489v49.148m0-49.148h49.14m-49.14,49.148v49.149m0-49.149h49.14m-49.14,49.149v49.149m0-49.149h49.14m-49.14,49.149v49.148m0-49.148h49.14m-49.14,49.148v49.149m0-49.149h49.14m-49.14,49.149v49.149m0-49.149h49.14m-49.14,49.149v49.148m0-49.148h49.14m-49.14,49.148v49.149m0-49.149h49.14m-49.14,49.149v49.148m0-49.148h49.14m-49.14,49.148v49.149m0-49.149h49.14m-49.14,49.149v49.149m0-49.149h49.14m-49.14,49.149v49.148m0-49.148h49.14m-49.14,49.148v49.149m0-49.149h49.14m-49.14,49.149v49.149m0-49.149h49.14m-49.14,49.149v49.148m0-49.148h49.14m-49.14,49.148h49.14m0-982.972v49.1482m0-49.1482h49.15m-49.15,49.1482v49.1486m0-49.1486h49.15m-49.15,49.1486v49.1487m0-49.1487h49.15m-49.15,49.1487v49.1486m0-49.1486h49.15m-49.15,49.1486v49.1489m0-49.1489h49.15m-49.15,49.1489v49.148m0-49.148h49.15m-49.15,49.148v49.149m0-49.149h49.15m-49.15,49.149v49.149m0-49.149h49.15m-49.15,49.149v49.148m0-49.148h49.15m-49.15,49.148v49.149m0-49.149h49.15m-49.15,49.149v49.149m0-49.149h49.15m-49.15,49.149v49.148m0-49.148h49.15m-49.15,49.148v49.149m0-49.149h49.15m-49.15,49.149v49.148m0-49.148h49.15m-49.15,49.148v49.149m0-49.149h49.15m-49.15,49.149v49.149m0-49.149h49.15m-49.15,49.149v49.148m0-49.148h49.15m-49.15,49.148v49.149m0-49.149h49.15m-49.15,49.149v49.149m0-49.149h49.15m-49.15,49.149v49.148m0-49.148h49.15m-49.15,49.148h49.15m0-982.972v49.1482m0-49.1482h49.15m-49.15,49.1482v49.1486m0-49.1486h49.15m-49.15,49.1486v49.1487m0-49.1487h49.15m-49.15,49.1487v49.1486m0-49.1486h49.15m-49.15,49.1486v49.1489m0-49.1489h49.15m-49.15,49.1489v49.148m0-49.148h49.15m-49.15,49.148v49.149m0-49.149h49.15m-49.15,49.149v49.149m0-49.149h49.15m-49.15,49.149v49.148m0-49.148h49.15m-49.15,49.148v49.149m0-49.149h49.15m-49.15,49.149v49.149m0-49.149h49.15m-49.15,49.149v49.148m0-49.148h49.15m-49.15,49.148v49.149m0-49.149h49.15m-49.15,49.149v49.148m0-49.148h49.15m-49.15,49.148v49.149m0-49.149h49.15m-49.15,49.149v49.149m0-49.149h49.15m-49.15,49.149v49.148m0-49.148h49.15m-49.15,49.148v49.149m0-49.149h49.15m-49.15,49.149v49.149m0-49.149h49.15m-49.15,49.149v49.148m0-49.148h49.15m-49.15,49.148h49.15m0-982.972v49.1482m0-49.1482h49.15m-49.15,49.1482v49.1486m0-49.1486h49.15m-49.15,49.1486v49.1487m0-49.1487h49.15m-49.15,49.1487v49.1486m0-49.1486h49.15m-49.15,49.1486v49.1489m0-49.1489h49.15m-49.15,49.1489v49.148m0-49.148h49.15m-49.15,49.148v49.149m0-49.149h49.15m-49.15,49.149v49.149m0-49.149h49.15m-49.15,49.149v49.148m0-49.148h49.15m-49.15,49.148v49.149m0-49.149h49.15m-49.15,49.149v49.149m0-49.149h49.15m-49.15,49.149v49.148m0-49.148h49.15m-49.15,49.148v49.149m0-49.149h49.15m-49.15,49.149v49.148m0-49.148h49.15m-49.15,49.148v49.149m0-49.149h49.15m-49.15,49.149v49.149m0-49.149h49.15m-49.15,49.149v49.148m0-49.148h49.15m-49.15,49.148v49.149m0-49.149h49.15m-49.15,49.149v49.149m0-49.149h49.15m-49.15,49.149v49.148m0-49.148h49.15m-49.15,49.148h49.15m0-982.972v49.1482m0-49.1482h49.15m-49.15,49.1482v49.1486m0-49.1486h49.15m-49.15,49.1486v49.1487m0-49.1487h49.15m-49.15,49.1487v49.1486m0-49.1486h49.15m-49.15,49.1486v49.1489m0-49.1489h49.15m-49.15,49.1489v49.148m0-49.148h49.15m-49.15,49.148v49.149m0-49.149h49.15m-49.15,49.149v49.149m0-49.149h49.15m-49.15,49.149v49.148m0-49.148h49.15m-49.15,49.148v49.149m0-49.149h49.15m-49.15,49.149v49.149m0-49.149h49.15m-49.15,49.149v49.148m0-49.148h49.15m-49.15,49.148v49.149m0-49.149h49.15m-49.15,49.149v49.148m0-49.148h49.15m-49.15,49.148v49.149m0-49.149h49.15m-49.15,49.149v49.149m0-49.149h49.15m-49.15,49.149v49.148m0-49.148h49.15m-49.15,49.148v49.149m0-49.149h49.15m-49.15,49.149v49.149m0-49.149h49.15m-49.15,49.149v49.148m0-49.148h49.15m-49.15,49.148h49.15m0-982.972v49.1482m0-49.1482h49.15v49.1482m-49.15,0v49.1486m0-49.1486h49.15m-49.15,49.1486v49.1487m0-49.1487h49.15m-49.15,49.1487v49.1486m0-49.1486h49.15m-49.15,49.1486v49.1489m0-49.1489h49.15m-49.15,49.1489v49.148m0-49.148h49.15m-49.15,49.148v49.149m0-49.149h49.15m-49.15,49.149v49.149m0-49.149h49.15m-49.15,49.149v49.148m0-49.148h49.15m-49.15,49.148v49.149m0-49.149h49.15m-49.15,49.149v49.149m0-49.149h49.15m-49.15,49.149v49.148m0-49.148h49.15m-49.15,49.148v49.149m0-49.149h49.15m-49.15,49.149v49.148m0-49.148h49.15m-49.15,49.148v49.149m0-49.149h49.15m-49.15,49.149v49.149m0-49.149h49.15m-49.15,49.149v49.148m0-49.148h49.15m-49.15,49.148v49.149m0-49.149h49.15m-49.15,49.149v49.149m0-49.149h49.15m-49.15,49.149v49.148m0-49.148h49.15m-49.15,49.148h49.15v-49.148m0-884.6758v49.1486m0,0v49.1487m0,0v49.1486m0,0v49.1489m0,0v49.148m0,0v49.149m0,0v49.149m0,0v49.148m0,0v49.149m0,0v49.149m0,0v49.148m0,0v49.149m0,0v49.148m0,0v49.149m0,0v49.149m0,0v49.148m0,0v49.149m0,0v49.149" fill="none" stroke="url(#eawReKriJ5b15-stroke)" stroke-width="0.614358"/></g><g style="mix-blend-mode:soft-light" opacity="0.8"><path d="M60.6723,47.4659v14.7445m0,0v14.7446m0-14.7446h-14.7446m14.7446,0h14.7445M60.6723,440.655v14.745m0,0v14.744m0-14.744h-14.7446m14.7446,0h14.7445M60.6723,833.844v14.744m0,0v14.745m0-14.745h-14.7446m14.7446,0h14.7445M453.861,47.4659v14.7445m0,0v14.7446m0-14.7446h-14.744m14.744,0h14.745M453.861,440.655v14.745m0,0v14.744m0-14.744h-14.744m14.744,0h14.745M453.861,833.844v14.744m0,0v14.745m0-14.745h-14.744m14.744,0h14.745M847.05,47.4659v14.7445m0,0v14.7446m0-14.7446h-14.744m14.744,0h14.745M847.05,440.655v14.745m0,0v14.744m0-14.744h-14.744m14.744,0h14.745M847.05,833.844v14.744m0,0v14.745m0-14.745h-14.744m14.744,0h14.745M1240.24,47.4659v14.7445m0,0v14.7446m0-14.7446h-14.75m14.75,0h14.74M1240.24,440.655v14.745m0,0v14.744m0-14.744h-14.75m14.75,0h14.74m-14.74,378.444v14.744m0,0v14.745m0-14.745h-14.75m14.75,0h14.74M1633.43,47.4659v14.7445m0,0v14.7446m0-14.7446h-14.75m14.75,0h14.74M1633.43,440.655v14.745m0,0v14.744m0-14.744h-14.75m14.75,0h14.74m-14.74,378.444v14.744m0,0v14.745m0-14.745h-14.75m14.75,0h14.74M2026.62,47.4659v14.7445m0,0v14.7446m0-14.7446h-14.75m14.75,0h14.74M2026.62,440.655v14.745m0,0v14.744m0-14.744h-14.75m14.75,0h14.74m-14.74,378.444v14.744m0,0v14.745m0-14.745h-14.75m14.75,0h14.74M60.6723,-149.129v14.745m0,0v14.745m0-14.745h-14.7446m14.7446,0h14.7445M60.6723,244.061v14.744m0,0v14.745m0-14.745h-14.7446m14.7446,0h14.7445M60.6723,637.249v14.745m0,0v14.745m0-14.745h-14.7446m14.7446,0h14.7445M453.861,-149.129v14.745m0,0v14.745m0-14.745h-14.744m14.744,0h14.745M453.861,244.061v14.744m0,0v14.745m0-14.745h-14.744m14.744,0h14.745M453.861,637.249v14.745m0,0v14.745m0-14.745h-14.744m14.744,0h14.745M847.05,-149.129v14.745m0,0v14.745m0-14.745h-14.744m14.744,0h14.745M847.05,244.061v14.744m0,0v14.745m0-14.745h-14.744m14.744,0h14.745M847.05,637.249v14.745m0,0v14.745m0-14.745h-14.744m14.744,0h14.745m378.445-801.123v14.745m0,0v14.745m0-14.745h-14.75m14.75,0h14.74m-14.74,378.445v14.744m0,0v14.745m0-14.745h-14.75m14.75,0h14.74m-14.74,378.444v14.745m0,0v14.745m0-14.745h-14.75m14.75,0h14.74m378.45-801.123v14.745m0,0v14.745m0-14.745h-14.75m14.75,0h14.74m-14.74,378.445v14.744m0,0v14.745m0-14.745h-14.75m14.75,0h14.74m-14.74,378.444v14.745m0,0v14.745m0-14.745h-14.75m14.75,0h14.74m378.45-801.123v14.745m0,0v14.745m0-14.745h-14.75m14.75,0h14.74m-14.74,378.445v14.744m0,0v14.745m0-14.745h-14.75m14.75,0h14.74m-14.74,378.444v14.745m0,0v14.745m0-14.745h-14.75m14.75,0h14.74M-135.922,47.4659v14.7445m0,0v14.7446m0-14.7446h-14.745m14.745,0h14.744M-135.922,440.655v14.745m0,0v14.744m0-14.744h-14.745m14.745,0h14.744m-14.744,378.444v14.744m0,0v14.745m0-14.745h-14.745m14.745,0h14.744M257.267,47.4659v14.7445m0,0v14.7446m0-14.7446h-14.745m14.745,0h14.744M257.267,440.655v14.745m0,0v14.744m0-14.744h-14.745m14.745,0h14.744M257.267,833.844v14.744m0,0v14.745m0-14.745h-14.745m14.745,0h14.744M650.456,47.4659v14.7445m0,0v14.7446m0-14.7446h-14.745m14.745,0h14.744M650.456,440.655v14.745m0,0v14.744m0-14.744h-14.745m14.745,0h14.744M650.456,833.844v14.744m0,0v14.745m0-14.745h-14.745m14.745,0h14.744M1043.64,47.4659v14.7445m0,0v14.7446m0-14.7446h-14.74m14.74,0h14.75M1043.64,440.655v14.745m0,0v14.744m0-14.744h-14.74m14.74,0h14.75m-14.75,378.444v14.744m0,0v14.745m0-14.745h-14.74m14.74,0h14.75M1436.83,47.4659v14.7445m0,0v14.7446m0-14.7446h-14.74m14.74,0h14.75M1436.83,440.655v14.745m0,0v14.744m0-14.744h-14.74m14.74,0h14.75m-14.75,378.444v14.744m0,0v14.745m0-14.745h-14.74m14.74,0h14.75M1830.02,47.4659v14.7445m0,0v14.7446m0-14.7446h-14.74m14.74,0h14.75M1830.02,440.655v14.745m0,0v14.744m0-14.744h-14.74m14.74,0h14.75m-14.75,378.444v14.744m0,0v14.745m0-14.745h-14.74m14.74,0h14.75M-135.922,-149.128v14.744m0,0v14.745m0-14.745h-14.745m14.745,0h14.744m-14.744,378.445v14.744m0,0v14.745m0-14.745h-14.745m14.745,0h14.744m-14.744,378.444v14.745m0,0v14.745m0-14.745h-14.745m14.745,0h14.744m378.445-801.123v14.745m0,0v14.745m0-14.745h-14.745m14.745,0h14.744M257.267,244.061v14.744m0,0v14.745m0-14.745h-14.745m14.745,0h14.744M257.267,637.249v14.745m0,0v14.745m0-14.745h-14.745m14.745,0h14.744m378.445-801.123v14.745m0,0v14.745m0-14.745h-14.745m14.745,0h14.744M650.456,244.061v14.744m0,0v14.745m0-14.745h-14.745m14.745,0h14.744M650.456,637.249v14.745m0,0v14.745m0-14.745h-14.745m14.745,0h14.744m378.44-801.123v14.745m0,0v14.745m0-14.745h-14.74m14.74,0h14.75m-14.75,378.445v14.744m0,0v14.745m0-14.745h-14.74m14.74,0h14.75m-14.75,378.444v14.745m0,0v14.745m0-14.745h-14.74m14.74,0h14.75m378.44-801.123v14.745m0,0v14.745m0-14.745h-14.74m14.74,0h14.75m-14.75,378.445v14.744m0,0v14.745m0-14.745h-14.74m14.74,0h14.75m-14.75,378.444v14.745m0,0v14.745m0-14.745h-14.74m14.74,0h14.75m378.44-801.123v14.745m0,0v14.745m0-14.745h-14.74m14.74,0h14.75m-14.75,378.445v14.744m0,0v14.745m0-14.745h-14.74m14.74,0h14.75m-14.75,378.444v14.745m0,0v14.745m0-14.745h-14.74m14.74,0h14.75" fill="none" stroke="url(#eawReKriJ5b17-stroke)" stroke-width="1.22872"/></g></g><path d="M232.131,430.58c-.095-.307-.226-.582-.392-.824-.163-.247-.36-.457-.591-.631-.228-.174-.489-.305-.784-.392-.296-.091-.618-.136-.966-.136-.625,0-1.182.157-1.671.471-.488.315-.873.777-1.153,1.387-.277.606-.415,1.344-.415,2.215c0,.879.138,1.624.415,2.233.276.61.661,1.074,1.153,1.392.493.315,1.065.472,1.716.472.591,0,1.102-.114,1.534-.341.436-.227.771-.549,1.006-.966.235-.42.352-.913.352-1.477l.477.074h-3.159v-1.648h4.722v1.398c0,.996-.212,1.858-.636,2.585-.425.727-1.008,1.288-1.75,1.682-.743.39-1.595.585-2.557.585-1.072,0-2.013-.24-2.824-.721-.807-.485-1.438-1.173-1.892-2.063-.451-.894-.676-1.955-.676-3.182c0-.939.132-1.778.398-2.517.268-.738.643-1.365,1.124-1.881.482-.518,1.046-.912,1.694-1.181.647-.273,1.352-.409,2.113-.409.644,0,1.245.094,1.801.284.557.185,1.052.45,1.483.795.436.345.794.754,1.074,1.227.281.474.464.997.551,1.569h-2.147Zm8.055,8.09c-.875,0-1.631-.181-2.267-.545-.633-.367-1.119-.886-1.46-1.557-.341-.674-.512-1.468-.512-2.38c0-.898.171-1.686.512-2.364.345-.682.826-1.212,1.443-1.591.617-.383,1.343-.574,2.176-.574.538,0,1.046.087,1.523.261.481.171.905.436,1.273.796.371.36.662.818.875,1.375.212.553.318,1.212.318,1.977v.631h-7.154v-1.387h5.182c-.004-.393-.089-.744-.256-1.051-.166-.31-.399-.555-.698-.733-.296-.178-.641-.267-1.034-.267-.421,0-.79.103-1.108.307-.319.201-.567.466-.745.796-.174.325-.263.683-.267,1.074v1.21c0,.507.093.943.279,1.307.185.359.445.636.778.829.333.189.724.284,1.17.284.3,0,.571-.041.813-.125.242-.087.453-.214.631-.381.178-.166.312-.373.403-.619l1.921.216c-.122.508-.353.951-.694,1.33-.337.375-.769.666-1.295.875-.527.204-1.129.306-1.807.306Zm9.979-8.897v1.591h-5.017v-1.591h5.017Zm-3.779-2.091h2.057v8.193c0,.277.042.489.125.636.087.144.201.243.341.296s.296.079.466.079c.129,0,.246-.009.352-.028.11-.019.193-.036.25-.051l.347,1.608c-.11.038-.267.079-.472.125-.2.045-.447.072-.738.079-.516.015-.98-.062-1.392-.233-.413-.174-.741-.443-.983-.806-.239-.364-.356-.819-.353-1.364v-8.534Zm15.882,2.38c-.053-.496-.276-.882-.67-1.159-.39-.276-.898-.414-1.523-.414-.439,0-.816.066-1.13.199-.315.132-.555.312-.722.539-.167.228-.252.487-.256.779c0,.242.055.452.165.63.114.178.267.33.46.455.194.121.408.223.642.307.235.083.472.153.711.21l1.091.273c.439.102.861.24,1.267.414.409.175.774.394,1.096.66.326.265.583.585.773.96.189.375.284.814.284,1.318c0,.682-.174,1.282-.523,1.801-.348.515-.852.919-1.511,1.21-.655.288-1.449.432-2.381.432-.905,0-1.691-.14-2.358-.42-.663-.281-1.182-.69-1.557-1.228-.371-.537-.572-1.193-.602-1.966h2.074c.03.406.155.743.375,1.012s.506.47.858.602c.356.133.754.199,1.193.199.458,0,.86-.068,1.205-.205.348-.14.621-.333.818-.579.197-.25.297-.542.301-.875-.004-.303-.093-.553-.267-.75-.174-.201-.419-.368-.733-.5-.311-.136-.674-.258-1.091-.364l-1.324-.341c-.958-.246-1.716-.619-2.272-1.119-.554-.504-.83-1.172-.83-2.006c0-.685.186-1.286.557-1.801.375-.515.884-.915,1.528-1.199.644-.288,1.373-.431,2.188-.431.825,0,1.549.143,2.17.431.625.284,1.116.68,1.472,1.188.356.504.54,1.083.551,1.738h-2.029Zm8.334-.289v1.591h-5.017v-1.591h5.017Zm-3.778-2.091h2.057v8.193c0,.277.041.489.125.636.087.144.2.243.341.296.14.053.295.079.465.079.129,0,.247-.009.353-.028.11-.019.193-.036.25-.051l.346,1.608c-.109.038-.267.079-.471.125-.201.045-.447.072-.739.079-.515.015-.979-.062-1.392-.233-.413-.174-.74-.443-.983-.806-.238-.364-.356-.819-.352-1.364v-8.534Zm8.01,10.994c-.553,0-1.051-.098-1.495-.295-.439-.201-.787-.497-1.045-.887-.254-.39-.381-.871-.381-1.443c0-.492.091-.899.273-1.221s.43-.58.744-.773c.315-.193.669-.339,1.063-.438.398-.102.809-.176,1.233-.221.511-.053.926-.101,1.244-.142.318-.046.549-.114.693-.205.148-.095.222-.24.222-.437v-.034c0-.428-.127-.76-.381-.995s-.619-.352-1.096-.352c-.504,0-.904.11-1.199.329-.292.22-.489.48-.591.779l-1.921-.273c.152-.53.402-.973.75-1.329.349-.36.775-.629,1.279-.807.504-.182,1.06-.273,1.67-.273.421,0,.839.049,1.256.148.417.098.797.261,1.142.488.345.224.621.529.83.915.212.387.318.87.318,1.449v5.841h-1.978v-1.199h-.068c-.125.243-.301.47-.528.682-.224.208-.506.377-.847.506-.337.125-.733.187-1.187.187Zm.534-1.511c.413,0,.771-.082,1.074-.245.303-.166.536-.386.699-.659.166-.272.25-.57.25-.892v-1.028c-.065.053-.175.102-.33.148-.151.045-.322.085-.511.119-.19.034-.377.064-.563.091-.185.026-.346.049-.483.068-.307.042-.581.11-.824.205-.242.094-.433.227-.573.397-.141.167-.211.383-.211.648c0,.379.139.665.415.858.277.193.629.29,1.057.29Zm6.142,1.335v-8.727h1.994v1.454h.091c.159-.504.432-.892.818-1.165.391-.276.836-.414,1.336-.414.113,0,.24.005.38.017.144.007.264.021.358.04v1.892c-.087-.031-.225-.057-.415-.08-.185-.026-.365-.04-.539-.04-.375,0-.712.082-1.012.245-.295.159-.528.38-.699.664-.17.284-.255.612-.255.983v5.131h-2.057Zm11.17-8.727v1.591h-5.017v-1.591h5.017Zm-3.778-2.091h2.057v8.193c0,.277.041.489.125.636.087.144.201.243.341.296s.295.079.466.079c.128,0,.246-.009.352-.028.11-.019.193-.036.25-.051l.346,1.608c-.109.038-.267.079-.471.125-.201.045-.447.072-.739.079-.515.015-.979-.062-1.392-.233-.413-.174-.74-.443-.983-.806-.238-.364-.356-.819-.352-1.364v-8.534Zm9.268,10.988c-.875,0-1.63-.181-2.267-.545-.632-.367-1.119-.886-1.46-1.557-.341-.674-.511-1.468-.511-2.38c0-.898.17-1.686.511-2.364.345-.682.826-1.212,1.443-1.591.618-.383,1.343-.574,2.176-.574.538,0,1.046.087,1.523.261.481.171.906.436,1.273.796.371.36.663.818.875,1.375.212.553.318,1.212.318,1.977v.631h-7.153v-1.387h5.182c-.004-.393-.089-.744-.256-1.051-.167-.31-.4-.555-.699-.733-.295-.178-.64-.267-1.034-.267-.421,0-.79.103-1.108.307-.318.201-.566.466-.744.796-.175.325-.264.683-.267,1.074v1.21c0,.507.092.943.278,1.307.186.359.445.636.778.829.334.189.724.284,1.171.284.299,0,.57-.041.812-.125.243-.087.453-.214.631-.381.178-.166.313-.373.403-.619l1.921.216c-.121.508-.352.951-.693,1.33-.337.375-.769.666-1.296.875-.526.204-1.129.306-1.807.306Zm8.86-.017c-.686,0-1.299-.176-1.841-.528s-.97-.864-1.284-1.534c-.315-.671-.472-1.485-.472-2.443c0-.97.159-1.788.478-2.455.321-.67.755-1.176,1.301-1.517.545-.345,1.153-.517,1.824-.517.511,0,.931.087,1.261.261.329.171.591.377.784.62.193.238.343.464.449.676h.085v-4.352h2.063v11.636h-2.023v-1.375h-.125c-.106.212-.26.437-.46.676-.201.235-.466.436-.796.602-.329.167-.744.25-1.244.25Zm.574-1.687c.435,0,.807-.118,1.113-.352.307-.239.54-.57.699-.995.159-.424.239-.918.239-1.483c0-.564-.08-1.055-.239-1.471-.155-.417-.386-.741-.693-.972-.303-.231-.676-.346-1.119-.346-.459,0-.841.119-1.148.358-.307.238-.538.568-.693.988-.156.421-.233.902-.233,1.443c0,.546.077,1.033.233,1.461.159.424.392.759.699,1.005.31.243.691.364,1.142.364Z" fill="#040c17"/><path d="M341,428.5l4,4m0,0l-4,4m4-4h-20" fill="none" stroke="#040c17" stroke-linecap="round" stroke-linejoin="round"/></g><clipPath id="eawReKriJ5b22"><rect width="1440" height="600" rx="0" ry="0" fill="#fff"/></clipPath></g></svg>
