<svg width="26" height="28" viewBox="0 0 26 28" fill="none" xmlns="http://www.w3.org/2000/svg">
<path d="M9.87634 1.3125C10.0294 0.550735 10.6977 0 11.4732 0H14.524C15.2994 0 15.9677 0.550735 16.1208 1.3125L16.8605 4.91544C17.5799 5.22426 18.2533 5.62059 18.8655 6.08897L22.3244 4.93088C23.0591 4.68382 23.8651 4.99265 24.2529 5.67206L25.7783 8.33824C26.166 9.01765 26.0283 9.87206 25.4467 10.3919L22.7275 12.8316C22.7734 13.2125 22.7938 13.6037 22.7938 14C22.7938 14.3963 22.7683 14.7875 22.7275 15.1684L25.4518 17.6132C26.0334 18.1331 26.166 18.9926 25.7834 19.6669L24.258 22.3331C23.8703 23.0074 23.0642 23.3213 22.3295 23.0743L18.8706 21.9162C18.2533 22.3846 17.5799 22.7757 16.8656 23.0897L16.131 26.6875C15.9728 27.4544 15.3045 28 14.5342 28H11.4834C10.7079 28 10.0396 27.4493 9.88654 26.6875L9.1519 23.0897C8.43256 22.7809 7.76424 22.3846 7.14694 21.9162L3.67269 23.0743C2.93805 23.3213 2.13198 23.0125 1.74426 22.3331L0.218854 19.6669C-0.168874 18.9875 -0.0311286 18.1331 0.550463 17.6132L3.27476 15.1684C3.22885 14.7875 3.20844 14.3963 3.20844 14C3.20844 13.6037 3.23395 13.2125 3.27476 12.8316L0.550463 10.3868C-0.0311286 9.86691 -0.163772 9.00735 0.218854 8.33309L1.74426 5.66691C2.13198 4.9875 2.93805 4.67868 3.67269 4.92573L7.13163 6.08382C7.74894 5.61544 8.42236 5.22426 9.13659 4.91029L9.87634 1.3125ZM12.9986 18.1176C13.5345 18.1156 14.0649 18.0071 14.5593 17.7983C15.0537 17.5895 15.5025 17.2845 15.88 16.9007C16.2576 16.5169 16.5565 16.0618 16.7598 15.5615C16.963 15.0611 17.0666 14.5253 17.0646 13.9846C17.0626 13.4438 16.955 12.9088 16.7481 12.41C16.5411 11.9112 16.2388 11.4584 15.8584 11.0775C15.478 10.6965 15.0269 10.3949 14.531 10.1899C14.035 9.98482 13.5039 9.88033 12.968 9.88235C12.432 9.88438 11.9017 9.99289 11.4073 10.2017C10.9129 10.4105 10.4641 10.7155 10.0865 11.0993C9.70893 11.4831 9.40998 11.9382 9.20673 12.4385C9.00348 12.9389 8.89991 13.4747 8.90192 14.0154C8.90393 14.5562 9.01148 15.0912 9.21845 15.59C9.42541 16.0888 9.72773 16.5416 10.1081 16.9225C10.4885 17.3035 10.9396 17.6051 11.4355 17.8101C11.9315 18.0152 12.4626 18.1197 12.9986 18.1176Z" fill="url(#paint0_linear_26_5198)"/>
<defs>
<linearGradient id="paint0_linear_26_5198" x1="7" y1="-4" x2="29" y2="30.5" gradientUnits="userSpaceOnUse">
<stop stop-color="#BB32FF"/>
<stop offset="0.666404" stop-color="#0FD6F5"/>
<stop offset="1" stop-color="#7CE314"/>
</linearGradient>
</defs>
</svg>
