<svg width="26" height="26" viewBox="0 0 26 26" fill="none" xmlns="http://www.w3.org/2000/svg">
<path d="M7.22731 15.36H1.70766C0.379741 15.36 -0.436208 13.9147 0.246416 12.7734L3.06757 8.06959C3.53154 7.29628 4.36349 6.82696 5.26477 6.82696H10.3311C14.3895 -0.0474683 20.4425 -0.394123 24.4902 0.197857C25.1729 0.299186 25.7062 0.832502 25.8021 1.50981C26.3941 5.55767 26.0475 11.6108 19.1732 15.6693V20.7358C19.1732 21.6371 18.7039 22.4691 17.9306 22.9331L13.2269 25.7543C12.091 26.437 10.6404 25.6157 10.6404 24.293V18.7732C10.6404 16.8906 9.10986 15.36 7.22731 15.36ZM21.7331 6.82696C21.7331 6.49079 21.6669 6.15791 21.5382 5.84733C21.4096 5.53674 21.221 5.25454 20.9833 5.01683C20.7456 4.77912 20.4634 4.59056 20.1528 4.46191C19.8423 4.33326 19.5094 4.26705 19.1732 4.26705C18.8371 4.26705 18.5042 4.33326 18.1936 4.46191C17.883 4.59056 17.6009 4.77912 17.3632 5.01683C17.1254 5.25454 16.9369 5.53674 16.8082 5.84733C16.6796 6.15791 16.6134 6.49079 16.6134 6.82696C16.6134 7.16314 16.6796 7.49602 16.8082 7.8066C16.9369 8.11718 17.1254 8.39938 17.3632 8.63709C17.6009 8.8748 17.883 9.06337 18.1936 9.19201C18.5042 9.32066 18.8371 9.38688 19.1732 9.38688C19.5094 9.38688 19.8423 9.32066 20.1528 9.19201C20.4634 9.06337 20.7456 8.8748 20.9833 8.63709C21.221 8.39938 21.4096 8.11718 21.5382 7.8066C21.6669 7.49602 21.7331 7.16314 21.7331 6.82696Z" fill="url(#paint0_linear_26_5140)"/>
<defs>
<linearGradient id="paint0_linear_26_5140" x1="9.23744" y1="0.431339" x2="25.2512" y2="28.4393" gradientUnits="userSpaceOnUse">
<stop stop-color="#BB32FF"/>
<stop offset="0.5" stop-color="#0FD6F5"/>
<stop offset="1" stop-color="#7CE314"/>
</linearGradient>
</defs>
</svg>
