<svg width="17" height="22" viewBox="0 0 17 22" fill="none" xmlns="http://www.w3.org/2000/svg">
<path d="M0 2.69549C0 1.20876 1.20876 0 2.69549 0H8.99199C9.70798 0 10.3945 0.282184 10.8999 0.787589L15.3854 5.27727C15.8908 5.78267 16.173 6.46918 16.173 7.18517V18.8684C16.173 20.3552 14.9642 21.5639 13.4775 21.5639H2.69549C1.20876 21.5639 0 20.3552 0 18.8684V2.69549ZM8.76035 2.46385V6.40179C8.76035 6.96195 9.211 7.4126 9.77116 7.4126H13.7091L8.76035 2.46385ZM2.69549 3.7063C2.69549 4.26646 3.14614 4.71711 3.7063 4.71711H5.72792C6.28808 4.71711 6.73873 4.26646 6.73873 3.7063C6.73873 3.14614 6.28808 2.69549 5.72792 2.69549H3.7063C3.14614 2.69549 2.69549 3.14614 2.69549 3.7063ZM2.69549 7.74954C2.69549 8.3097 3.14614 8.76035 3.7063 8.76035H5.72792C6.28808 8.76035 6.73873 8.3097 6.73873 7.74954C6.73873 7.18938 6.28808 6.73873 5.72792 6.73873H3.7063C3.14614 6.73873 2.69549 7.18938 2.69549 7.74954ZM7.4126 10.9504V11.1189C6.19963 11.1315 5.22252 12.1171 5.22252 13.33C5.22252 14.4125 6.00168 15.3348 7.07145 15.5117L8.82774 15.8065C9.08044 15.8486 9.26575 16.0677 9.26575 16.3246C9.26575 16.6152 9.0299 16.851 8.73929 16.851L6.40179 16.8468C5.93851 16.8468 5.55945 17.2259 5.55945 17.6892C5.55945 18.1525 5.93851 18.5315 6.40179 18.5315H7.4126V18.7C7.4126 19.1633 7.79166 19.5423 8.25494 19.5423C8.71823 19.5423 9.09728 19.1633 9.09728 18.7V18.502C10.1502 18.3293 10.9504 17.4196 10.9504 16.3204C10.9504 15.238 10.1713 14.3156 9.1015 14.1387L7.34521 13.8439C7.09251 13.8018 6.9072 13.5828 6.9072 13.3258C6.9072 13.0352 7.14305 12.7994 7.43366 12.7994H9.43422C9.89751 12.7994 10.2766 12.4203 10.2766 11.957C10.2766 11.4937 9.89751 11.1147 9.43422 11.1147H9.09728V10.9462C9.09728 10.4829 8.71823 10.1039 8.25494 10.1039C7.79166 10.1039 7.4126 10.4829 7.4126 10.9462V10.9504Z" fill="url(#paint0_linear_26_5130)"/>
<defs>
<linearGradient id="paint0_linear_26_5130" x1="5.74603" y1="0.357744" x2="20.6071" y2="19.8516" gradientUnits="userSpaceOnUse">
<stop stop-color="#BB32FF"/>
<stop offset="0.5" stop-color="#0FD6F5"/>
<stop offset="1" stop-color="#7CE314"/>
</linearGradient>
</defs>
</svg>
