<svg width="29" height="28" viewBox="0 0 29 28" fill="none" xmlns="http://www.w3.org/2000/svg">
<path d="M10.7714 12.535C11.5875 12.535 12.3956 12.3729 13.1495 12.0579C13.9035 11.7429 14.5885 11.2813 15.1656 10.6993C15.7426 10.1173 16.2004 9.42636 16.5127 8.66595C16.825 7.90554 16.9857 7.09055 16.9857 6.26749C16.9857 5.44443 16.825 4.62943 16.5127 3.86902C16.2004 3.10862 15.7426 2.41769 15.1656 1.8357C14.5885 1.25371 13.9035 0.792055 13.1495 0.477084C12.3956 0.162113 11.5875 -1.22645e-08 10.7714 0C9.95536 -1.22645e-08 9.14728 0.162113 8.39332 0.477084C7.63937 0.792055 6.95431 1.25371 6.37726 1.8357C5.80022 2.41769 5.34247 3.10862 5.03018 3.86902C4.71788 4.62943 4.55714 5.44443 4.55714 6.26749C4.55714 7.09055 4.71788 7.90554 5.03018 8.66595C5.34247 9.42636 5.80022 10.1173 6.37726 10.6993C6.95431 11.2813 7.63937 11.7429 8.39332 12.0579C9.14728 12.3729 9.95536 12.535 10.7714 12.535ZM9.23339 15.4598C4.1325 15.4598 0 19.6277 0 24.7722C0 25.6288 0.68875 26.3234 1.53804 26.3234H14.5621C12.6875 24.0985 11.6 21.2311 11.6 18.1966V16.5723C11.6 16.191 11.6518 15.815 11.7502 15.4598H9.23339ZM22.2316 25.0961L21.5429 25.4251V15.6008L26.5143 17.2722V18.2958C26.5143 21.2102 24.8468 23.8582 22.2316 25.1013V25.0961ZM21.0198 13.1356L15.2198 15.0838C14.5414 15.3136 14.0857 15.9508 14.0857 16.6715V18.2958C14.0857 22.1817 16.3125 25.7176 19.7925 27.368L20.7505 27.8224C20.9991 27.9373 21.2684 28 21.5377 28C21.807 28 22.0814 27.9373 22.3248 27.8224L23.2829 27.368C26.7732 25.7124 29 22.1765 29 18.2906V16.6663C29 15.9455 28.5443 15.3083 27.8659 15.0785L22.0659 13.1304C21.7241 13.0155 21.3564 13.0155 21.0198 13.1304V13.1356Z" fill="url(#paint0_linear_26_5185)"/>
<defs>
<linearGradient id="paint0_linear_26_5185" x1="9" y1="-4" x2="35" y2="33" gradientUnits="userSpaceOnUse">
<stop stop-color="#BB32FF"/>
<stop offset="0.611561" stop-color="#0FD6F5"/>
<stop offset="1" stop-color="#7CE314"/>
</linearGradient>
</defs>
</svg>
