<svg width="29" height="30" viewBox="0 0 29 30" fill="none" xmlns="http://www.w3.org/2000/svg">
<path d="M14.0567 0C14.3262 0 14.5957 0.0585938 14.8418 0.169922L25.8809 4.85156C27.1699 5.39648 28.1309 6.66797 28.125 8.20312C28.0957 14.0156 25.7051 24.6504 15.6094 29.4844C14.6309 29.9531 13.4942 29.9531 12.5157 29.4844C2.41409 24.6504 0.0293235 14.0156 2.66513e-05 8.20312C-0.00583272 6.66797 0.955105 5.39648 2.24417 4.85156L13.2774 0.169922C13.5235 0.0585938 13.7871 0 14.0567 0ZM14.0567 3.91406V26.0684C22.1426 22.1543 24.3164 13.4824 24.3692 8.29102L14.0567 3.91992V3.91406Z" fill="url(#paint0_linear_26_5060)"/>
<defs>
<linearGradient id="paint0_linear_26_5060" x1="0" y1="0" x2="31.0566" y2="34" gradientUnits="userSpaceOnUse">
<stop stop-color="#BB32FF"/>
<stop offset="0.585" stop-color="#0FD6F5"/>
<stop offset="1" stop-color="#7CE314"/>
</linearGradient>
</defs>
</svg>
